<?xml version="1.0" encoding="utf-8"?>
<!-- Generator: Adobe Illustrator 16.0.0, SVG Export Plug-In . SVG Version: 6.00 Build 0)  -->
<!DOCTYPE svg PUBLIC "-//W3C//DTD SVG 1.1//EN" "http://www.w3.org/Graphics/SVG/1.1/DTD/svg11.dtd">
<svg version="1.1" id="Calque_1" xmlns="http://www.w3.org/2000/svg" xmlns:xlink="http://www.w3.org/1999/xlink" x="0px" y="0px"
	 width="16px" height="16px" viewBox="0 0 16 16" enable-background="new 0 0 16 16" xml:space="preserve">
<path fill="none" stroke="#000000" stroke-linecap="round" stroke-linejoin="round" d="M2,4h12"/>
<path fill="none" stroke="#000000" stroke-linecap="round" stroke-linejoin="round" d="M5.333,4V2.667
	c0-0.354,0.141-0.693,0.391-0.943s0.589-0.391,0.943-0.391h2.667c0.354,0,0.692,0.141,0.942,0.391s0.391,0.589,0.391,0.943V4
	 M12.667,4v9.334c0,0.354-0.141,0.692-0.391,0.942s-0.589,0.391-0.942,0.391H4.667c-0.354,0-0.693-0.141-0.943-0.391
	s-0.391-0.589-0.391-0.942V4H12.667z"/>
<path fill="none" stroke="#000000" stroke-linecap="round" stroke-linejoin="round" d="M6.667,7.333v4"/>
<path fill="none" stroke="#000000" stroke-linecap="round" stroke-linejoin="round" d="M9.334,7.333v4"/>
</svg>
