<svg width="30" height="30" viewBox="0 0 30 30" fill="none" xmlns="http://www.w3.org/2000/svg">
<path d="M24.9863 24C24.9745 24 24.9634 24.0015 24.9512 24.0017V24H1.97837V24.0017C1.43513 24.011 1 24.2298 1 24.5C1 24.7702 1.43513 24.989 1.97871 24.9983V25H24.9515V24.9983C24.9634 24.9985 24.9745 25 24.9867 25C25.2555 25 25.5132 24.9473 25.7033 24.8535C25.8933 24.7597 26 24.6325 26 24.4999C26 24.3673 25.8931 24.2401 25.703 24.1464C25.5129 24.0526 25.2551 24 24.9863 24Z" fill="black"/>
<path d="M2.61126 21.5561H4.31496C4.47698 21.5558 4.63486 21.5049 4.76661 21.4106C4.89836 21.3163 4.9974 21.1832 5.04996 21.0299L6.09786 18.2714H13.8889L14.9704 21.119L14.9767 21.1178C15.0356 21.2376 15.1243 21.3402 15.2344 21.4157C15.3445 21.4912 15.4722 21.5371 15.6052 21.5489V21.5561H17.3089V21.5489C17.3323 21.551 17.3548 21.5561 17.3788 21.5561C17.5859 21.5561 17.7846 21.4738 17.9311 21.3273C18.0777 21.1808 18.16 20.9821 18.16 20.7749C18.16 20.6951 18.1447 20.6198 18.1225 20.5472L18.1261 20.5466L18.1078 20.4998C18.1021 20.4845 18.0967 20.4695 18.0901 20.4548L12.0628 5.11073H12.0574C12.0064 4.95486 11.9076 4.81904 11.775 4.72262C11.6424 4.6262 11.4827 4.57409 11.3188 4.57373H8.67516C8.50874 4.57413 8.34683 4.62783 8.21316 4.72695C8.07948 4.82607 7.98107 4.96541 7.93236 5.12453L1.87416 20.5145L1.87776 20.5151C1.84896 20.5967 1.83006 20.6831 1.83006 20.7746C1.83006 20.9818 1.91235 21.1806 2.05884 21.3271C2.20534 21.4737 2.40404 21.5561 2.61126 21.5561V21.5561ZM9.99336 7.55273L13.0489 15.6494H6.93786L9.99336 7.55273V7.55273Z" fill="black"/>
<path d="M23.707 16L25.1215 14.586C25.168 14.5395 25.2048 14.4844 25.2299 14.4237C25.2551 14.363 25.268 14.2979 25.268 14.2323C25.268 14.1666 25.2551 14.1015 25.2299 14.0408C25.2048 13.9801 25.168 13.925 25.1215 13.8785C25.075 13.832 25.0199 13.7952 24.9592 13.7701C24.8985 13.7449 24.8334 13.732 24.7677 13.732C24.7021 13.732 24.637 13.7449 24.5763 13.7701C24.5156 13.7952 24.4605 13.832 24.414 13.8785L23 15.293L21.586 13.8785C21.4922 13.7847 21.3649 13.732 21.2323 13.732C21.0996 13.732 20.9723 13.7847 20.8785 13.8785C20.7847 13.9723 20.732 14.0996 20.732 14.2323C20.732 14.2979 20.7449 14.363 20.7701 14.4237C20.7952 14.4844 20.832 14.5395 20.8785 14.586L22.293 16L20.8785 17.414C20.7847 17.5078 20.732 17.6351 20.732 17.7677C20.732 17.9004 20.7847 18.0277 20.8785 18.1215C20.9723 18.2153 21.0996 18.268 21.2323 18.268C21.3649 18.268 21.4922 18.2153 21.586 18.1215L23 16.707L24.414 18.1215C24.5078 18.2153 24.6351 18.268 24.7677 18.268C24.9004 18.268 25.0277 18.2153 25.1215 18.1215C25.2153 18.0277 25.268 17.9004 25.268 17.7677C25.268 17.6351 25.2153 17.5078 25.1215 17.414L23.707 16ZM23 21C20.2385 21 18 18.7615 18 16C18 13.2385 20.2385 11 23 11C25.7615 11 28 13.2385 28 16C28 18.7615 25.7615 21 23 21Z" fill="black"/>
</svg>
