<svg width="30" height="30" viewBox="0 0 30 30" fill="none" xmlns="http://www.w3.org/2000/svg">
<path d="M3.61126 21.5561H5.31496C5.47698 21.5558 5.63487 21.5049 5.76661 21.4106C5.89836 21.3163 5.9974 21.1832 6.04996 21.0299L7.09786 18.2714H14.8889L15.9704 21.119L15.9767 21.1178C16.0356 21.2376 16.1243 21.3402 16.2344 21.4157C16.3445 21.4912 16.4722 21.5371 16.6052 21.5489V21.5561H18.3089V21.5489C18.3323 21.551 18.3548 21.5561 18.3788 21.5561C18.5859 21.5561 18.7846 21.4738 18.9312 21.3273C19.0777 21.1808 19.16 20.9821 19.16 20.7749C19.16 20.6951 19.1447 20.6198 19.1225 20.5472L19.1261 20.5466L19.1078 20.4998C19.1021 20.4845 19.0967 20.4695 19.0901 20.4548L13.0628 5.11073H13.0574C13.0065 4.95486 12.9076 4.81904 12.775 4.72262C12.6424 4.6262 12.4827 4.57409 12.3188 4.57373H9.67516C9.50874 4.57413 9.34683 4.62783 9.21316 4.72695C9.07949 4.82607 8.98108 4.96541 8.93236 5.12453L2.87416 20.5145L2.87776 20.5151C2.84896 20.5967 2.83006 20.6831 2.83006 20.7746C2.83006 20.9818 2.91235 21.1806 3.05885 21.3271C3.20534 21.4737 3.40404 21.5561 3.61126 21.5561V21.5561ZM10.9934 7.55273L14.0489 15.6494H7.93786L10.9934 7.55273V7.55273Z" fill="black"/>
<path d="M24 10.999C21.24 10.999 19 13.239 19 15.999C19 18.759 21.24 20.999 24 20.999C26.76 20.999 29 18.759 29 15.999C29 13.239 26.76 10.999 24 10.999ZM26.5 16.499H24.5V18.499H23.5V16.499H21.5V15.499H23.5V13.499H24.5V15.499H26.5V16.499Z" fill="black"/>
<path d="M26.9863 24C26.9745 24 26.9634 24.0015 26.9512 24.0017V24H3.97837V24.0017C3.43513 24.011 3 24.2298 3 24.5C3 24.7702 3.43513 24.989 3.97871 24.9983V25H26.9515V24.9983C26.9634 24.9985 26.9745 25 26.9867 25C27.2555 25 27.5132 24.9473 27.7033 24.8535C27.8933 24.7597 28 24.6325 28 24.4999C28 24.3673 27.8931 24.2401 27.703 24.1464C27.5129 24.0526 27.2551 24 26.9863 24Z" fill="black"/>
</svg>
