<svg width="20" height="25" viewBox="0 0 20 25" fill="none" xmlns="http://www.w3.org/2000/svg">
<path d="M12.5 8.85004V6.97504C12.5 6.47776 12.3354 6.00084 12.0424 5.64921C11.7493 5.29758 11.3519 5.10004 10.9375 5.10004H3.4375C3.0231 5.10004 2.62567 5.29758 2.33265 5.64921C2.03962 6.00084 1.875 6.47776 1.875 6.97504V18.225C1.875 18.7223 2.03962 19.1992 2.33265 19.5509C2.62567 19.9025 3.0231 20.1 3.4375 20.1H10.9375C11.3519 20.1 11.7493 19.9025 12.0424 19.5509C12.3354 19.1992 12.5 18.7223 12.5 18.225V16.35" stroke="#3E474F" stroke-linecap="round" stroke-linejoin="round"/>
<path d="M15 8.85004L18.125 12.6L15 16.35" stroke="#3E474F" stroke-linecap="round" stroke-linejoin="round"/>
<path d="M7.46094 12.6H18.125" stroke="#3E474F" stroke-linecap="round" stroke-linejoin="round"/>
</svg>
