<svg width="42" height="42" viewBox="0 0 42 42" fill="none" xmlns="http://www.w3.org/2000/svg">
<g clip-path="url(#clip0)">
<path d="M40.6671 18.4419L21.9787 0.398078C21.4343 -0.132611 20.5659 -0.132611 20.0215 0.398078L1.33379 18.4412C1.05867 18.7067 0.90332 19.0726 0.90332 19.455C0.90332 20.2332 1.53423 20.864 2.31239 20.864H4.79586V40.5909C4.79586 41.3692 5.42668 42 6.20493 42H16.0684C16.8466 42 17.4774 41.3692 17.4774 40.5909V29.3184H24.5228V40.5909C24.5228 41.3692 25.1536 42 25.9318 42H35.7953C36.5735 42 37.2044 41.3692 37.2044 40.5909V20.864H39.6878C40.0699 20.864 40.4354 20.709 40.7009 20.4343C41.2418 19.8747 41.2266 18.9827 40.6671 18.4419ZM37.2044 19.455C36.4261 19.455 35.7953 20.0858 35.7953 20.864V40.5909H25.9318V29.3184C25.9318 28.5402 25.301 27.9094 24.5228 27.9094H17.4774C16.6992 27.9094 16.0684 28.5402 16.0684 29.3184V40.5909H6.20493V20.864C6.20493 20.0858 5.57411 19.455 4.79586 19.455H2.31239L21.0001 1.4119L39.6949 19.455H37.2044V19.455Z" fill="white"/>
</g>
<defs>
<clipPath id="clip0">
<rect width="42" height="42" fill="white"/>
</clipPath>
</defs>
</svg>
