<svg width="20" height="20" viewBox="0 0 20 20" fill="none" xmlns="http://www.w3.org/2000/svg">
<path d="M6.74998 9.99994L13.891 17.4199C14.0197 17.5504 14.0918 17.7262 14.0918 17.9094C14.0918 18.0927 14.0197 18.2685 13.891 18.3989C13.8277 18.4632 13.7523 18.5142 13.6691 18.549C13.5859 18.5839 13.4967 18.6018 13.4065 18.6018C13.3163 18.6018 13.227 18.5839 13.1439 18.549C13.0607 18.5142 12.9853 18.4632 12.922 18.3989L5.09198 10.4909C4.96331 10.3605 4.89117 10.1847 4.89117 10.0014C4.89117 9.81822 4.96331 9.64237 5.09198 9.51194L12.922 1.60394C12.9853 1.53969 13.0607 1.48867 13.1439 1.45384C13.227 1.41902 13.3163 1.40108 13.4065 1.40108C13.4967 1.40108 13.5859 1.41902 13.6691 1.45384C13.7523 1.48867 13.8277 1.53969 13.891 1.60394C14.0197 1.73437 14.0918 1.91023 14.0918 2.09344C14.0918 2.27666 14.0197 2.45251 13.891 2.58294L6.74998 9.99994Z" fill="#3E3F42"/>
</svg>
