<svg width="42" height="43" viewBox="0 0 42 43" fill="none" xmlns="http://www.w3.org/2000/svg">
<g clip-path="url(#clip0)">
<path d="M40.6671 18.8483L21.9787 0.804511C21.4343 0.273822 20.5659 0.273822 20.0215 0.804511L1.33379 18.8476C1.05867 19.1131 0.90332 19.479 0.90332 19.8614C0.90332 20.6397 1.53423 21.2705 2.31239 21.2705H4.79586V40.9974C4.79586 41.7756 5.42668 42.4064 6.20493 42.4064H16.0684C16.8466 42.4064 17.4774 41.7756 17.4774 40.9974V29.7249H24.5228V40.9974C24.5228 41.7756 25.1536 42.4064 25.9318 42.4064H35.7953C36.5735 42.4064 37.2044 41.7756 37.2044 40.9974V21.2705H39.6878C40.0699 21.2705 40.4354 21.1154 40.7009 20.8407C41.2418 20.2811 41.2266 19.3891 40.6671 18.8483ZM37.2044 19.8614C36.4261 19.8614 35.7953 20.4922 35.7953 21.2705V40.9974H25.9318V29.7249C25.9318 28.9466 25.301 28.3158 24.5228 28.3158H17.4774C16.6992 28.3158 16.0684 28.9466 16.0684 29.7249V40.9974H6.20493V21.2705C6.20493 20.4922 5.57411 19.8614 4.79586 19.8614H2.31239L21.0001 1.81833L39.6949 19.8614H37.2044V19.8614Z" fill="black"/>
</g>
<defs>
<clipPath id="clip0">
<rect y="0.406433" width="42" height="42" fill="white"/>
</clipPath>
</defs>
</svg>
