<svg width="28" height="28" viewBox="0 0 28 28" fill="none" xmlns="http://www.w3.org/2000/svg">
<path d="M20.9747 10.8007C21.8139 10.3236 22.4718 9.58224 22.8458 8.69222C23.2199 7.8022 23.289 6.81347 23.0424 5.88007C22.7959 4.94667 22.2476 4.12102 21.4828 3.53178C20.7181 2.94253 19.78 2.62277 18.8145 2.62231C17.8491 2.62186 16.9107 2.94075 16.1454 3.52928C15.3801 4.11781 14.831 4.94295 14.5836 5.87611C14.3362 6.80928 14.4044 7.79808 14.7776 8.68845C15.1507 9.57882 15.8079 10.3208 16.6468 10.7987C15.2205 11.2053 13.9397 12.0193 12.9088 13.189C12.4141 12.9197 11.8912 12.7056 11.3497 12.5507C12.1891 12.0735 12.8471 11.332 13.221 10.4418C13.595 9.55153 13.664 8.56259 13.4172 7.62908C13.1704 6.69557 12.6217 5.86993 11.8566 5.28084C11.0915 4.69175 10.1531 4.37231 9.1875 4.37231C8.22191 4.37231 7.28345 4.69175 6.51838 5.28084C5.75332 5.86993 5.20462 6.69557 4.95782 7.62908C4.71102 8.56259 4.77998 9.55153 5.15395 10.4418C5.52792 11.332 6.1859 12.0735 7.02532 12.5507C5.57853 12.9696 4.28252 13.7953 3.29148 14.9296C1.73316 16.69 0.875 19.1565 0.875 21.8749C0.875003 21.9529 0.89587 22.0295 0.935438 22.0968C0.975007 22.164 1.03184 22.2194 1.10004 22.2573C1.26487 22.3489 5.18268 24.4999 9.1875 24.4999C12.5869 24.4999 15.5112 23.1922 16.7125 22.5686C17.4065 22.6856 18.1088 22.7462 18.8125 22.7499C23.1808 22.7499 26.7652 20.5902 26.9156 20.4982C26.9796 20.4591 27.0324 20.4043 27.0691 20.3389C27.1057 20.2735 27.125 20.1998 27.125 20.1249C27.125 17.4065 26.2668 14.94 24.7085 13.1796C23.7175 12.0453 22.4215 11.2196 20.9747 10.8007ZM15.3125 6.9999C15.3125 6.30767 15.5178 5.63098 15.9024 5.0554C16.2869 4.47983 16.8336 4.03123 17.4731 3.76632C18.1126 3.50142 18.8164 3.4321 19.4953 3.56715C20.1742 3.7022 20.7979 4.03554 21.2874 4.52503C21.7769 5.01451 22.1102 5.63815 22.2452 6.31708C22.3803 6.99602 22.311 7.69975 22.0461 8.33929C21.7812 8.97883 21.3326 9.52546 20.757 9.91004C20.1814 10.2946 19.5047 10.4999 18.8125 10.4999C17.8846 10.4989 16.9949 10.1298 16.3388 9.47362C15.6826 8.81747 15.3135 7.92784 15.3125 6.9999ZM5.6875 8.7499C5.6875 8.05767 5.89277 7.38098 6.27736 6.8054C6.66194 6.22983 7.20857 5.78123 7.84811 5.51632C8.48765 5.25142 9.19138 5.1821 9.87032 5.31715C10.5492 5.4522 11.1729 5.78554 11.6624 6.27503C12.1519 6.76451 12.4852 7.38815 12.6202 8.06708C12.7553 8.74602 12.686 9.44975 12.4211 10.0893C12.1562 10.7288 11.7076 11.2755 11.132 11.66C10.5564 12.0446 9.87973 12.2499 9.1875 12.2499C8.25956 12.2489 7.36993 11.8798 6.71378 11.2236C6.05763 10.5675 5.68854 9.67784 5.6875 8.7499ZM9.1875 23.6249C5.93999 23.6249 2.63594 22.0615 1.7529 21.6119C1.80562 19.2124 2.57988 17.0536 3.94663 15.5098C5.30808 13.9718 7.16953 13.1249 9.1875 13.1249C11.2055 13.1249 13.0669 13.9718 14.4284 15.5098C15.7971 17.0558 16.5716 19.2186 16.6223 21.6222C15.8039 22.0724 12.7238 23.6249 9.1875 23.6249ZM18.8125 21.8749C18.3736 21.8737 17.9351 21.8473 17.4992 21.796C17.4828 19.1089 16.6267 16.6729 15.0835 14.9298C14.6617 14.4518 14.1854 14.0249 13.6643 13.6577C15.0172 12.182 16.8273 11.3749 18.8125 11.3749C20.8305 11.3749 22.6919 12.2218 24.0534 13.7598C25.4221 15.3059 26.1967 17.4688 26.2474 19.8726C25.4303 20.3229 22.3566 21.8749 18.8125 21.8749Z" fill="white"/>
</svg>
