<svg width="20" height="25" viewBox="0 0 20 25" fill="none" xmlns="http://www.w3.org/2000/svg">
<g clip-path="url(#clip0)">
<path d="M15.4938 0C15.3632 0 15.2489 0.114286 15.2489 0.244898C15.2489 0.37551 15.3632 0.489796 15.4938 0.489796H19.1673L13.0285 6.62857C12.9306 6.72653 12.9306 6.87347 13.0285 6.97143C13.0775 7.02041 13.1428 7.03673 13.2081 7.03673C13.2734 7.03673 13.3387 7.02041 13.3877 6.97143L19.5428 0.816326V4.48979C19.5428 4.62041 19.6571 4.73469 19.7877 4.73469C19.9183 4.73469 20.0326 4.62041 20.0326 4.48979V0H15.4938Z" fill="white"/>
<path d="M17.502 7.24898C17.2408 7.24898 17.0122 7.46122 17.0122 7.73877V16.9306H10.351V23.5918H0.979592V2.26939H12.9796C13.2408 2.26939 13.4694 2.05714 13.4694 1.77959C13.4694 1.50204 13.2571 1.28979 12.9796 1.28979H0V24.5714H11.0694L17.9918 17.7796V7.73877C17.9918 7.47755 17.7633 7.24898 17.502 7.24898ZM16.4735 17.8939L11.3143 22.9551V17.8939H16.4735Z" fill="white"/>
<path d="M8.53874 15.6081C8.61989 15.6081 8.68568 15.5423 8.68568 15.4611C8.68568 15.38 8.61989 15.3142 8.53874 15.3142C8.45759 15.3142 8.3918 15.38 8.3918 15.4611C8.3918 15.5423 8.45759 15.6081 8.53874 15.6081Z" fill="white"/>
<path d="M12.3265 8.01626C12.2938 7.98361 12.2612 7.96729 12.2285 7.96729H4.8816C4.84894 7.96729 4.79996 7.98361 4.78364 8.01626C4.75098 8.04892 4.73466 8.08157 4.73466 8.11422V15.4448C4.73466 15.4775 4.75098 15.5265 4.78364 15.5428C4.81629 15.5754 4.84894 15.5918 4.8816 15.5918H7.86935C7.95098 15.5918 8.01629 15.5265 8.01629 15.4448C8.01629 15.3632 7.95098 15.2979 7.86935 15.2979H6.95507L7.46119 14.6122C7.51017 14.5469 7.49384 14.4489 7.42853 14.3999C7.36323 14.351 7.26527 14.3673 7.21629 14.4326L6.59588 15.2979H5.02853V13.5673H6.25302C6.31833 13.7469 6.4816 13.8612 6.67751 13.8612C6.92241 13.8612 7.11833 13.6652 7.11833 13.4203C7.11833 13.1754 6.92241 12.9795 6.67751 12.9795C6.4816 12.9795 6.31833 13.1101 6.25302 13.2734H5.02853V11.951H7.41221V12.7673C7.41221 12.8489 7.47751 12.9142 7.55915 12.9142H8.16323C8.24486 12.9142 8.31017 12.8489 8.31017 12.7673V11.951H9.17547L10.1551 12.702C10.1877 12.7183 10.2204 12.7346 10.253 12.7346C10.302 12.7346 10.3347 12.7183 10.3673 12.6693C10.4163 12.604 10.4 12.5061 10.3347 12.4571L9.32241 11.6734C9.28976 11.6571 9.25711 11.6408 9.22445 11.6408H7.70609V10.6448C7.70609 10.5632 7.64078 10.4979 7.55915 10.4979C7.47751 10.4979 7.41221 10.5632 7.41221 10.6448V10.7918H6.38364V10.302C6.56323 10.2367 6.67751 10.0734 6.67751 9.87749C6.67751 9.63259 6.4816 9.43667 6.2367 9.43667C5.9918 9.43667 5.79588 9.63259 5.79588 9.87749C5.79588 10.0734 5.92649 10.2367 6.08976 10.302V10.9387C6.08976 11.0203 6.15507 11.0857 6.2367 11.0857H7.41221V11.6408H5.02853V8.27749H7.41221V9.1428C7.41221 9.17545 7.42853 9.2081 7.44486 9.24075L8.22853 10.253C8.26119 10.2857 8.29384 10.3183 8.34282 10.3183C8.37547 10.3183 8.40813 10.302 8.44078 10.2857C8.50609 10.2367 8.52241 10.1387 8.47343 10.0734L7.72241 9.09382V8.26116H9.02853V9.40402C9.02853 9.48565 9.09384 9.55096 9.17547 9.55096H9.502V10.4489C9.502 10.5305 9.56731 10.5959 9.64894 10.5959H10.2857C10.351 10.7754 10.5142 10.8897 10.7102 10.8897C10.9551 10.8897 11.151 10.6938 11.151 10.4489C11.151 10.204 10.9551 10.0081 10.7102 10.0081C10.5142 10.0081 10.351 10.1387 10.2857 10.302H9.79588V9.56728H12.0653V11.6408H10.7265C10.6449 11.6408 10.5796 11.7061 10.5796 11.7877C10.5796 11.8693 10.6449 11.9346 10.7265 11.9346H12.0653V12.8163H11.3306C11.2489 12.8163 11.1836 12.8816 11.1836 12.9632C11.1836 13.551 10.6938 14.0408 10.1061 14.0408C10.0245 14.0408 9.95915 14.1061 9.95915 14.1877V15.2979H9.22445C9.14282 15.2979 9.07751 15.3632 9.07751 15.4448C9.07751 15.5265 9.14282 15.5918 9.22445 15.5918H12.2285C12.2612 15.5918 12.3102 15.5754 12.3265 15.5428C12.3591 15.5101 12.3755 15.4775 12.3755 15.4448V8.11422C12.3591 8.08157 12.3428 8.04892 12.3265 8.01626ZM6.66119 13.2571C6.74282 13.2571 6.80813 13.3224 6.80813 13.404C6.80813 13.4857 6.74282 13.551 6.66119 13.551C6.57955 13.551 6.51425 13.4857 6.51425 13.404C6.51425 13.3224 6.57955 13.2571 6.66119 13.2571ZM6.2367 9.73055C6.31833 9.73055 6.38364 9.79586 6.38364 9.87749C6.38364 9.95912 6.31833 10.0244 6.2367 10.0244C6.15507 10.0244 6.08976 9.95912 6.08976 9.87749C6.08976 9.79586 6.15507 9.73055 6.2367 9.73055ZM8.01629 12.604H7.72241V11.9346H8.01629V12.604ZM10.7102 10.302C10.7918 10.302 10.8571 10.3673 10.8571 10.4489C10.8571 10.5305 10.7918 10.5959 10.7102 10.5959C10.6285 10.5959 10.5632 10.5305 10.5632 10.4489C10.5632 10.3673 10.6285 10.302 10.7102 10.302ZM9.32241 9.27341V8.27749H12.0653V9.27341H9.32241ZM10.253 14.3346C10.8898 14.2693 11.4122 13.7469 11.4775 13.1101H12.0816V15.2979H10.253V14.3346Z" fill="white"/>
</g>
<defs>
<clipPath id="clip0">
<rect width="20" height="24.5714" fill="white"/>
</clipPath>
</defs>
</svg>
