<svg width="46" height="46" viewBox="0 0 46 46" fill="none" xmlns="http://www.w3.org/2000/svg">
<path d="M27.7552 22.5849C27.6873 22.5847 27.6199 22.5722 27.5563 22.5481C26.366 22.0812 23.8418 14.5268 23.8418 12.7133C23.8427 11.6756 24.2553 10.6808 24.989 9.94704C25.7227 9.21332 26.7176 8.80072 27.7552 8.7998C28.7926 8.80102 29.787 9.2138 30.5203 9.94751C31.2536 10.6812 31.6658 11.6759 31.6664 12.7133C31.6664 14.5268 29.1444 22.0812 27.9542 22.5481C27.8905 22.5716 27.8232 22.584 27.7552 22.5849ZM27.7552 9.89C27.0071 9.89092 26.2898 10.1885 25.7607 10.7176C25.2317 11.2466 24.9341 11.9639 24.9331 12.7121C24.9331 14.4762 26.8628 19.6777 27.7552 21.1957C28.6476 19.6788 30.575 14.4762 30.575 12.7121C30.575 11.1562 29.31 9.89 27.7552 9.89Z" fill="#E5E5E5"/>
<path d="M28.5004 37.2013C28.3193 37.2 28.1416 37.1513 27.9852 37.0598L14.7568 28.9972L1.54099 37.0518C1.33301 37.1725 1.08961 37.2174 0.852236 37.1788C0.614867 37.1403 0.398215 37.0206 0.239187 36.8402C0.0821597 36.654 -0.00242796 36.4173 0.000952003 36.1738C0.00433197 35.9302 0.0954528 35.696 0.257587 35.5142C13.846 18.4183 13.8621 18.4114 14.0679 18.339L21.9914 15.1316C22.1077 15.0856 22.2361 15.08 22.356 15.1155L23.9315 15.5985C24.219 15.6871 24.3811 15.993 24.2937 16.2805C24.25 16.418 24.1541 16.533 24.0266 16.6007C23.8992 16.6684 23.7502 16.6835 23.6118 16.6427L22.2214 16.2161L14.5762 19.3084C13.662 20.4136 5.00709 31.2914 1.33054 35.9156L14.4739 27.8909C14.5593 27.8384 14.6577 27.8106 14.7579 27.8106C14.8582 27.8106 14.9565 27.8384 15.042 27.8909L28.5016 36.095C28.5136 36.0895 28.5259 36.0845 28.5384 36.08L41.1079 28.85L41.6104 15.8124L32.7681 19.3165C32.6531 19.3625 32.5266 19.3671 32.407 19.3314L30.935 18.8829C30.8003 18.8374 30.6887 18.7412 30.6238 18.6147C30.559 18.4882 30.546 18.3414 30.5876 18.2055C30.6292 18.0696 30.7222 17.9553 30.8467 17.8868C30.9713 17.8183 31.1176 17.8011 31.2547 17.8387L32.5438 18.2332L41.3885 14.728C41.7611 14.6245 42.0819 14.6981 42.3361 14.9028C42.4595 15.0021 42.5575 15.1295 42.6219 15.2743C42.6863 15.4191 42.7153 15.5772 42.7064 15.7354L42.1486 28.9684C42.1395 29.1319 42.0919 29.2909 42.0098 29.4326C41.9276 29.5743 41.8133 29.6946 41.676 29.7838L29.0179 37.0598C28.9808 37.0802 28.942 37.0971 28.9018 37.1104C28.7762 37.1694 28.6392 37.2004 28.5004 37.2013Z" fill="#E5E5E5"/>
<path d="M14.7821 28.8686C14.6862 28.8683 14.592 28.8427 14.5091 28.7945C14.4262 28.7463 14.3575 28.6771 14.3098 28.5938C14.2621 28.5106 14.2372 28.4163 14.2376 28.3204C14.2379 28.2245 14.2635 28.1304 14.3117 28.0475L21.6579 15.4826C21.694 15.4207 21.742 15.3666 21.799 15.3233C21.856 15.28 21.921 15.2483 21.9902 15.2301C22.0595 15.2119 22.1316 15.2075 22.2026 15.2172C22.2735 15.2268 22.3419 15.2504 22.4037 15.2865C22.4656 15.3226 22.5197 15.3705 22.563 15.4275C22.6063 15.4845 22.638 15.5495 22.6562 15.6188C22.6744 15.688 22.6788 15.7602 22.6691 15.8311C22.6594 15.9021 22.6359 15.9704 22.5998 16.0323L15.2536 28.5972C15.2056 28.6797 15.1368 28.7481 15.054 28.7957C14.9713 28.8434 14.8775 28.8685 14.7821 28.8686Z" fill="#E5E5E5"/>
<path d="M28.6005 36.9931C28.5191 36.993 28.4388 36.9747 28.3654 36.9396C28.292 36.9046 28.2273 36.8535 28.1761 36.7903C28.1249 36.7271 28.0884 36.6532 28.0693 36.5741C28.0502 36.495 28.049 36.4127 28.0657 36.333L31.84 18.7771C31.872 18.6364 31.9578 18.5139 32.079 18.4356C32.2002 18.3574 32.3473 18.3297 32.4886 18.3585C32.63 18.3894 32.7533 18.475 32.8317 18.5965C32.9102 18.718 32.9373 18.8657 32.9072 19.0071L29.1329 36.563C29.1069 36.6849 29.0398 36.7941 28.9428 36.8723C28.8459 36.9506 28.7251 36.9933 28.6005 36.9931Z" fill="#E5E5E5"/>
</svg>
