<svg width="40" height="40" viewBox="0 0 40 40" fill="none" xmlns="http://www.w3.org/2000/svg">
<path d="M40 0H0V40H40V0Z" fill="#031451"/>
<path d="M25.332 25H23.498C23.2927 25 23.1223 24.9533 22.987 24.86C22.8563 24.762 22.7653 24.6383 22.714 24.489L22.112 22.711H18.234L17.632 24.489C17.5853 24.6197 17.4943 24.7387 17.359 24.846C17.2237 24.9487 17.058 25 16.862 25H15.014L18.962 14.801H21.384L25.332 25ZM18.78 21.101H21.566L20.628 18.308C20.5673 18.1307 20.495 17.923 20.411 17.685C20.3317 17.4423 20.2523 17.181 20.173 16.901C20.0983 17.1857 20.0213 17.4493 19.942 17.692C19.8627 17.9347 19.788 18.1447 19.718 18.322L18.78 21.101Z" fill="white"/>
</svg>
