<svg width="40" height="40" viewBox="0 0 40 40" fill="none" xmlns="http://www.w3.org/2000/svg">
<path d="M40 0H0V40H40V0Z" fill="#031451"/>
<path d="M25.094 19.897C25.094 20.6343 24.9657 21.3157 24.709 21.941C24.457 22.5617 24.1 23.1007 23.638 23.558C23.176 24.0107 22.6183 24.3653 21.965 24.622C21.3163 24.874 20.5953 25 19.802 25H15.84V14.801H19.802C20.5953 14.801 21.3163 14.9293 21.965 15.186C22.6183 15.4427 23.176 15.7973 23.638 16.25C24.1 16.7027 24.457 17.2417 24.709 17.867C24.9657 18.4877 25.094 19.1643 25.094 19.897ZM22.672 19.897C22.672 19.393 22.6067 18.938 22.476 18.532C22.3453 18.126 22.1563 17.783 21.909 17.503C21.6663 17.2183 21.3677 17.0013 21.013 16.852C20.6583 16.698 20.2547 16.621 19.802 16.621H18.22V23.18H19.802C20.2547 23.18 20.6583 23.1053 21.013 22.956C21.3677 22.802 21.6663 22.585 21.909 22.305C22.1563 22.0203 22.3453 21.675 22.476 21.269C22.6067 20.863 22.672 20.4057 22.672 19.897Z" fill="white"/>
</svg>
