<svg width="16" height="16" viewBox="0 0 16 16" fill="none" xmlns="http://www.w3.org/2000/svg">
<path d="M13.625 7.40625H4.48286L9.95473 2.65625C10.0422 2.57969 9.98911 2.4375 9.87348 2.4375H8.49067C8.42973 2.4375 8.37192 2.45937 8.32661 2.49844L2.42192 7.62187C2.36784 7.66875 2.32447 7.72671 2.29474 7.79181C2.26502 7.85692 2.24963 7.92765 2.24963 7.99922C2.24963 8.07079 2.26502 8.14152 2.29474 8.20663C2.32447 8.27173 2.36784 8.32968 2.42192 8.37656L8.36098 13.5312C8.38442 13.5516 8.41254 13.5625 8.44223 13.5625H9.87192C9.98754 13.5625 10.0407 13.4187 9.95317 13.3438L4.48286 8.59375H13.625C13.6938 8.59375 13.75 8.5375 13.75 8.46875V7.53125C13.75 7.4625 13.6938 7.40625 13.625 7.40625Z" fill="white"/>
</svg>
