<svg width="22" height="22" viewBox="0 0 22 22" fill="none" xmlns="http://www.w3.org/2000/svg">
<path d="M13.4062 16.8438H15.4688V18.9062C15.4688 18.9974 15.505 19.0849 15.5694 19.1493C15.6339 19.2138 15.7213 19.25 15.8125 19.25C15.9037 19.25 15.9911 19.2138 16.0556 19.1493C16.12 19.0849 16.1562 18.9974 16.1562 18.9062V16.8438H18.2188C18.3099 16.8438 18.3974 16.8075 18.4618 16.7431C18.5263 16.6786 18.5625 16.5912 18.5625 16.5C18.5625 16.4088 18.5263 16.3214 18.4618 16.2569C18.3974 16.1925 18.3099 16.1562 18.2188 16.1562H16.1562V14.0938C16.1562 14.0026 16.12 13.9151 16.0556 13.8507C15.9911 13.7862 15.9037 13.75 15.8125 13.75C15.7213 13.75 15.6339 13.7862 15.5694 13.8507C15.505 13.9151 15.4688 14.0026 15.4688 14.0938V16.1562H13.4062C13.3151 16.1562 13.2276 16.1925 13.1632 16.2569C13.0987 16.3214 13.0625 16.4088 13.0625 16.5C13.0625 16.5912 13.0987 16.6786 13.1632 16.7431C13.2276 16.8075 13.3151 16.8438 13.4062 16.8438Z" fill="white"/>
<path d="M1.55414 17.833C1.71166 17.919 5.4563 19.9375 9.28125 19.9375C10.2491 19.9334 11.2141 19.8308 12.1612 19.6315C12.6865 20.2439 13.3574 20.7145 14.1122 20.9998C14.8669 21.2851 15.6813 21.376 16.4804 21.2642C17.2795 21.1523 18.0376 20.8413 18.685 20.3598C19.3325 19.8782 19.8484 19.2416 20.1854 18.5085C20.5223 17.7753 20.6695 16.9692 20.6134 16.1643C20.5573 15.3594 20.2996 14.5815 19.8641 13.9022C19.4286 13.223 18.8293 12.6641 18.1213 12.2771C17.4133 11.8901 16.6194 11.6873 15.8125 11.6875C15.7205 11.6875 15.6291 11.6903 15.5384 11.6955C14.4464 10.0622 12.9075 8.94978 11.1507 8.48898C11.9769 8.06891 12.6377 7.38277 13.0263 6.54122C13.4149 5.69967 13.5087 4.75176 13.2926 3.85035C13.0766 2.94894 12.5632 2.14658 11.8353 1.57266C11.1074 0.998738 10.2074 0.686709 9.28046 0.68689C8.35351 0.687071 7.45365 0.999452 6.72598 1.57366C5.9983 2.14787 5.48524 2.95043 5.26952 3.85192C5.0538 4.75341 5.148 5.70128 5.53694 6.54268C5.92587 7.38408 6.58686 8.06996 7.41331 8.48971C5.98847 8.86354 4.69962 9.6674 3.67464 10.8432C2.19171 12.5443 1.375 14.9195 1.375 17.5312C1.375 17.593 1.39164 17.6536 1.42316 17.7067C1.45468 17.7598 1.49992 17.8034 1.55414 17.833ZM15.8125 12.375C16.6283 12.375 17.4259 12.6169 18.1042 13.0702C18.7826 13.5234 19.3113 14.1677 19.6235 14.9214C19.9357 15.6752 20.0174 16.5046 19.8582 17.3047C19.6991 18.1049 19.3062 18.8399 18.7293 19.4168C18.1524 19.9937 17.4174 20.3866 16.6172 20.5457C15.8171 20.7049 14.9877 20.6232 14.2339 20.311C13.4802 19.9988 12.8359 19.4701 12.3827 18.7917C11.9294 18.1134 11.6875 17.3158 11.6875 16.5C11.6887 15.4064 12.1237 14.3579 12.897 13.5845C13.6704 12.8112 14.7189 12.3762 15.8125 12.375ZM5.84375 4.81249C5.84375 4.13262 6.04536 3.46801 6.42307 2.90272C6.80079 2.33742 7.33766 1.89683 7.96578 1.63666C8.5939 1.37648 9.28506 1.30841 9.95187 1.44104C10.6187 1.57368 11.2312 1.90107 11.7119 2.38181C12.1927 2.86255 12.5201 3.47506 12.6527 4.14187C12.7853 4.80868 12.7173 5.49984 12.4571 6.12797C12.1969 6.75609 11.7563 7.29295 11.191 7.67067C10.6257 8.04839 9.96112 8.24999 9.28125 8.24999C8.36989 8.24896 7.49615 7.88646 6.85171 7.24203C6.20728 6.5976 5.84479 5.72386 5.84375 4.81249ZM4.19289 11.295C5.51813 9.77474 7.32523 8.93749 9.28125 8.93749C11.4602 8.93749 13.4363 9.97476 14.7734 11.8008C14.0241 11.9662 13.3253 12.3084 12.7353 12.7989C12.1452 13.2894 11.6811 13.9139 11.3816 14.6203C11.0821 15.3268 10.9559 16.0946 11.0136 16.8597C11.0713 17.6248 11.3112 18.365 11.7133 19.0185C10.9113 19.1695 10.0973 19.247 9.28125 19.25C6.09348 19.25 2.85343 17.721 2.0643 17.3231C2.10603 14.9602 2.85815 12.8262 4.19289 11.295Z" fill="white"/>
</svg>
