<svg width="20" height="20" viewBox="0 0 20 20" fill="none" xmlns="http://www.w3.org/2000/svg">
<g clip-path="url(#clip0)">
<path d="M19.6667 19.3343H18.3127C18.327 19.2248 18.3334 19.1129 18.3334 19.001C18.3334 18.0601 17.7919 17.2593 17 16.8884V5.66765C17 5.46765 16.8667 5.33433 16.6667 5.33433H11.6667V0.334327C11.6667 0.134327 11.5334 0.00100709 11.3334 0.00100709H2.3334C2.13332 0.000968026 2 0.134288 2 0.334288V19.3343H0.33332C0.13332 19.3343 0 19.4676 0 19.6676C0 19.8676 0.13332 20.001 0.33332 20.001H2.33332H3.33332H11.3333H17.9H19.6667C19.8667 20.001 20 19.8676 20 19.6676C20 19.4676 19.8667 19.3343 19.6667 19.3343ZM16.3333 16.6912C16.2245 16.676 16.1134 16.6676 16 16.6676C15.7484 16.6676 15.5015 16.7105 15.2683 16.7906C15.2102 16.7132 15.1166 16.6676 15 16.6676C14.8 16.6676 14.6667 16.8009 14.6667 17.0009V17.1031C14.5404 17.1941 14.4229 17.2979 14.3163 17.4134C14.2995 17.4312 14.2829 17.4492 14.2667 17.4676C13.9905 17.1223 13.6347 16.8725 13.2324 16.7509C13.1746 16.6979 13.095 16.6676 13 16.6676C12.9629 16.6676 12.928 16.6722 12.8959 16.681C12.8206 16.6722 12.7441 16.6676 12.6667 16.6676C12.4578 16.6676 12.2225 16.6947 12.032 16.7721C12.0084 16.78 11.9849 16.7882 11.9617 16.797C11.7314 16.6098 11.462 16.475 11.178 16.4008C11.175 16.4 11.172 16.3994 11.169 16.3985C11.1442 16.3922 11.1194 16.3861 11.0944 16.3807C11.0742 16.3762 11.0537 16.3724 11.0333 16.3685C11.0244 16.3669 11.0155 16.3651 11.0066 16.3636C10.9852 16.3599 10.9637 16.3566 10.942 16.3536C10.9323 16.3523 10.9226 16.351 10.9129 16.3498C10.893 16.3474 10.873 16.3451 10.853 16.3432C10.8383 16.3419 10.8236 16.3409 10.8089 16.3398C10.7932 16.3387 10.7776 16.3374 10.7618 16.3367C10.7301 16.3351 10.6984 16.3342 10.6667 16.3342C10.6421 16.3342 10.6178 16.3347 10.5936 16.3356C10.5777 16.3362 10.5619 16.3371 10.5461 16.338C10.5398 16.3384 10.5334 16.3387 10.527 16.3391C10.2234 16.3593 9.925 16.445 9.66664 16.5968V6.00097H11.3333H16.3333V16.6912V16.6912ZM2.66668 0.667648H11V5.33433H9.33332C9.13332 5.33433 9 5.46765 9 5.66765V16.0343C8.82965 15.864 8.63328 15.7199 8.41949 15.6071C8.40063 15.597 8.38156 15.5873 8.36242 15.5777C8.35488 15.574 8.34742 15.5701 8.33984 15.5665C8.10195 15.4511 7.84309 15.3754 7.57258 15.3471C7.56879 15.3467 7.56496 15.3464 7.56113 15.346C7.52973 15.3429 7.49816 15.3404 7.46645 15.3386C7.45805 15.3381 7.44965 15.3376 7.44121 15.3371C7.40539 15.3355 7.36945 15.3343 7.33332 15.3343C6.83723 15.3343 6.37762 15.4975 6 15.7717V15.6677C6 15.4677 5.86668 15.3344 5.66668 15.3344C5.46668 15.3344 5.33336 15.4677 5.33336 15.6677V16.3344C5.33336 16.3844 5.34168 16.4302 5.3573 16.4708C5.19363 16.7405 5.08086 17.0446 5.03336 17.3677C4.64961 17.4116 4.29871 17.5497 4.00004 17.7561V17.6677C4.00004 17.4677 3.86672 17.3344 3.66672 17.3344C3.46672 17.3344 3.3334 17.4677 3.3334 17.6677V18.3344C3.3334 18.3733 3.33859 18.4096 3.3482 18.443C3.18293 18.7103 3.07047 19.0127 3.02414 19.3344H2.66676V0.667648H2.66668ZM5.18164 18.0079C5.18824 18.0073 5.19492 18.0069 5.20156 18.0064C5.21914 18.005 5.23672 18.0037 5.25445 18.0029C5.28059 18.0017 5.30687 18.0009 5.33336 18.0009C5.53336 18.0009 5.66668 17.8676 5.66668 17.6676C5.66668 16.7343 6.4 16.0009 7.33336 16.0009C8.16668 16.0009 8.86668 16.6009 8.96668 17.4343C8.98922 17.5244 9.04273 17.5987 9.11594 17.6481C9.12055 17.6513 9.12527 17.6544 9.13008 17.6574C9.13523 17.6605 9.14035 17.6637 9.1457 17.6666C9.15801 17.6734 9.17082 17.6796 9.18418 17.685C9.18469 17.6852 9.18516 17.6854 9.18566 17.6856C9.20094 17.6917 9.21688 17.6968 9.23332 17.7009C9.23336 17.7009 9.23336 17.7009 9.2334 17.701C9.25324 17.7076 9.27578 17.7101 9.29961 17.7094C9.40918 17.711 9.51109 17.651 9.56668 17.5677C9.56668 17.5677 9.56672 17.5677 9.56676 17.5676L9.60008 17.5343C9.86676 17.201 10.2334 17.001 10.6668 17.001C10.8918 17.001 11.1168 17.0641 11.3187 17.1819C10.9211 17.5558 10.6956 18.0432 10.6694 18.5647C10.6677 18.5988 10.6668 18.6332 10.6668 18.6677C10.6668 18.8995 10.7053 19.1216 10.7816 19.3344H3.7C3.85602 18.6167 4.45016 18.0743 5.18164 18.0079ZM11.5685 19.3343C11.4412 19.1189 11.3667 18.8643 11.3667 18.6343C11.3667 18.2657 11.512 17.9336 11.7618 17.6909C11.8095 17.6466 11.8604 17.6058 11.9141 17.5688C11.9662 17.5692 12.0186 17.5583 12.0667 17.5343C12.8 17.1343 13.6667 17.501 13.9334 18.2343C13.9667 18.3343 14.0667 18.4343 14.2334 18.4343C14.265 18.4343 14.3 18.4242 14.3352 18.4063C14.4188 18.3926 14.4849 18.3312 14.5334 18.2343C14.6625 17.9598 14.8625 17.7407 15.106 17.587C15.1585 17.5724 15.2036 17.5464 15.2395 17.5112C15.4685 17.3962 15.728 17.3343 16 17.3343C16.9334 17.3343 17.6667 18.0676 17.6667 19.001C17.6667 19.101 17.6667 19.2343 17.6334 19.3343H11.5685V19.3343Z" fill="#3E474F"/>
<path d="M11 8.66672C10.8 8.66672 10.6667 8.80004 10.6667 9.00004V9.66672C10.6667 9.86672 10.8 10 11 10C11.2 10 11.3333 9.86672 11.3333 9.66672V9.00004C11.3333 8.80004 11.2 8.66672 11 8.66672Z" fill="#3E474F"/>
<path d="M11 14.6667C10.8 14.6667 10.6667 14.8 10.6667 15V15.6667C10.6667 15.8667 10.8 16 11 16C11.2 16 11.3333 15.8667 11.3333 15.6667V15C11.3333 14.8 11.2 14.6667 11 14.6667Z" fill="#3E474F"/>
<path d="M11 10.6667C10.8 10.6667 10.6667 10.8 10.6667 11V11.6667C10.6667 11.8667 10.8 12 11 12C11.2 12 11.3333 11.8667 11.3333 11.6667V11C11.3333 10.8 11.2 10.6667 11 10.6667Z" fill="#3E474F"/>
<path d="M11 12.6667C10.8 12.6667 10.6667 12.8 10.6667 13V13.6667C10.6667 13.8667 10.8 14 11 14C11.2 14 11.3333 13.8667 11.3333 13.6667V13C11.3333 12.8 11.2 12.6667 11 12.6667Z" fill="#3E474F"/>
<path d="M11 6.66669C10.8 6.66669 10.6667 6.80001 10.6667 7.00001V7.66669C10.6667 7.86669 10.8 8.00001 11 8.00001C11.2 8.00001 11.3333 7.86669 11.3333 7.66669V7.00001C11.3333 6.80001 11.2 6.66669 11 6.66669Z" fill="#3E474F"/>
<path d="M13 10C13.2 10 13.3333 9.86672 13.3333 9.66672V9.00004C13.3333 8.80004 13.2 8.66672 13 8.66672C12.8 8.66672 12.6667 8.80004 12.6667 9.00004V9.66672C12.6667 9.86672 12.8 10 13 10Z" fill="#3E474F"/>
<path d="M13 8.00001C13.2 8.00001 13.3333 7.86669 13.3333 7.66669V7.00001C13.3333 6.80001 13.2 6.66669 13 6.66669C12.8 6.66669 12.6667 6.80001 12.6667 7.00001V7.66669C12.6667 7.86669 12.8 8.00001 13 8.00001Z" fill="#3E474F"/>
<path d="M13 12C13.2 12 13.3333 11.8667 13.3333 11.6667V11C13.3333 10.8 13.2 10.6667 13 10.6667C12.8 10.6667 12.6667 10.8 12.6667 11V11.6667C12.6667 11.8667 12.8 12 13 12Z" fill="#3E474F"/>
<path d="M13 14C13.2 14 13.3333 13.8667 13.3333 13.6667V13C13.3333 12.8 13.2 12.6667 13 12.6667C12.8 12.6667 12.6667 12.8 12.6667 13V13.6667C12.6667 13.8667 12.8 14 13 14Z" fill="#3E474F"/>
<path d="M13 16C13.2 16 13.3333 15.8667 13.3333 15.6667V15C13.3333 14.8 13.2 14.6667 13 14.6667C12.8 14.6667 12.6667 14.8 12.6667 15V15.6667C12.6667 15.8667 12.8 16 13 16Z" fill="#3E474F"/>
<path d="M15 12C15.2 12 15.3333 11.8667 15.3333 11.6667V11C15.3333 10.8 15.2 10.6667 15 10.6667C14.8 10.6667 14.6667 10.8 14.6667 11V11.6667C14.6667 11.8667 14.8 12 15 12Z" fill="#3E474F"/>
<path d="M15 10C15.2 10 15.3333 9.86672 15.3333 9.66672V9.00004C15.3333 8.80004 15.2 8.66672 15 8.66672C14.8 8.66672 14.6667 8.80004 14.6667 9.00004V9.66672C14.6667 9.86672 14.8 10 15 10Z" fill="#3E474F"/>
<path d="M15 16C15.2 16 15.3333 15.8667 15.3333 15.6667V15C15.3333 14.8 15.2 14.6667 15 14.6667C14.8 14.6667 14.6667 14.8 14.6667 15V15.6667C14.6667 15.8667 14.8 16 15 16Z" fill="#3E474F"/>
<path d="M15 14C15.2 14 15.3333 13.8667 15.3333 13.6667V13C15.3333 12.8 15.2 12.6667 15 12.6667C14.8 12.6667 14.6667 12.8 14.6667 13V13.6667C14.6667 13.8667 14.8 14 15 14Z" fill="#3E474F"/>
<path d="M15 8.00001C15.2 8.00001 15.3333 7.86669 15.3333 7.66669V7.00001C15.3333 6.80001 15.2 6.66669 15 6.66669C14.8 6.66669 14.6667 6.80001 14.6667 7.00001V7.66669C14.6667 7.86669 14.8 8.00001 15 8.00001Z" fill="#3E474F"/>
<path d="M3.66669 12.6667C3.86669 12.6667 4.00001 12.5334 4.00001 12.3334V11.6667C4.00001 11.4667 3.86669 11.3334 3.66669 11.3334C3.46669 11.3334 3.33337 11.4667 3.33337 11.6667V12.3334C3.33333 12.5333 3.46669 12.6667 3.66669 12.6667Z" fill="#3E474F"/>
<path d="M3.66669 14.6667C3.86669 14.6667 4.00001 14.5334 4.00001 14.3334V13.6667C4.00001 13.4667 3.86669 13.3334 3.66669 13.3334C3.46669 13.3334 3.33337 13.4667 3.33337 13.6667V14.3334C3.33333 14.5333 3.46669 14.6667 3.66669 14.6667Z" fill="#3E474F"/>
<path d="M3.66669 16.6667C3.86669 16.6667 4.00001 16.5334 4.00001 16.3334V15.6667C4.00001 15.4667 3.86669 15.3334 3.66669 15.3334C3.46669 15.3334 3.33337 15.4667 3.33337 15.6667V16.3334C3.33333 16.5333 3.46669 16.6667 3.66669 16.6667Z" fill="#3E474F"/>
<path d="M3.66669 2.6667C3.86669 2.6667 4.00001 2.53337 4.00001 2.33337V1.66669C4.00001 1.46669 3.86669 1.33337 3.66669 1.33337C3.46669 1.33337 3.33337 1.46669 3.33337 1.66669V2.33337C3.33333 2.53334 3.46669 2.6667 3.66669 2.6667Z" fill="#3E474F"/>
<path d="M3.66669 4.66669C3.86669 4.66669 4.00001 4.53337 4.00001 4.33337V3.66669C4.00001 3.46669 3.86669 3.33337 3.66669 3.33337C3.46669 3.33337 3.33337 3.46669 3.33337 3.66669V4.33337C3.33333 4.53333 3.46669 4.66669 3.66669 4.66669Z" fill="#3E474F"/>
<path d="M3.66669 6.66669C3.86669 6.66669 4.00001 6.53337 4.00001 6.33337V5.66669C4.00001 5.46669 3.86669 5.33337 3.66669 5.33337C3.46669 5.33337 3.33337 5.46669 3.33337 5.66669V6.33337C3.33333 6.53334 3.46669 6.66669 3.66669 6.66669Z" fill="#3E474F"/>
<path d="M3.66669 8.66671C3.86669 8.66671 4.00001 8.53339 4.00001 8.33339V7.66671C4.00001 7.46671 3.86669 7.33339 3.66669 7.33339C3.46669 7.33339 3.33337 7.46671 3.33337 7.66671V8.33339C3.33333 8.53335 3.46669 8.66671 3.66669 8.66671Z" fill="#3E474F"/>
<path d="M3.66669 10.6667C3.86669 10.6667 4.00001 10.5334 4.00001 10.3334V9.66668C4.00001 9.46668 3.86669 9.33336 3.66669 9.33336C3.46669 9.33336 3.33337 9.46668 3.33337 9.66668V10.3334C3.33333 10.5333 3.46669 10.6667 3.66669 10.6667Z" fill="#3E474F"/>
<path d="M5.66669 4.66669C5.86669 4.66669 6.00001 4.53337 6.00001 4.33337V3.66669C6.00001 3.46669 5.86669 3.33337 5.66669 3.33337C5.46669 3.33337 5.33337 3.46669 5.33337 3.66669V4.33337C5.33333 4.53333 5.46669 4.66669 5.66669 4.66669Z" fill="#3E474F"/>
<path d="M5.66669 2.6667C5.86669 2.6667 6.00001 2.53337 6.00001 2.33337V1.66669C6.00001 1.46669 5.86669 1.33337 5.66669 1.33337C5.46669 1.33337 5.33337 1.46669 5.33337 1.66669V2.33337C5.33333 2.53334 5.46669 2.6667 5.66669 2.6667Z" fill="#3E474F"/>
<path d="M5.66669 8.66671C5.86669 8.66671 6.00001 8.53339 6.00001 8.33339V7.66671C6.00001 7.46671 5.86669 7.33339 5.66669 7.33339C5.46669 7.33339 5.33337 7.46671 5.33337 7.66671V8.33339C5.33333 8.53335 5.46669 8.66671 5.66669 8.66671Z" fill="#3E474F"/>
<path d="M5.66669 6.66669C5.86669 6.66669 6.00001 6.53337 6.00001 6.33337V5.66669C6.00001 5.46669 5.86669 5.33337 5.66669 5.33337C5.46669 5.33337 5.33337 5.46669 5.33337 5.66669V6.33337C5.33333 6.53334 5.46669 6.66669 5.66669 6.66669Z" fill="#3E474F"/>
<path d="M5.66669 10.6667C5.86669 10.6667 6.00001 10.5334 6.00001 10.3334V9.66668C6.00001 9.46668 5.86669 9.33336 5.66669 9.33336C5.46669 9.33336 5.33337 9.46668 5.33337 9.66668V10.3334C5.33333 10.5333 5.46669 10.6667 5.66669 10.6667Z" fill="#3E474F"/>
<path d="M5.66669 12.6667C5.86669 12.6667 6.00001 12.5334 6.00001 12.3334V11.6667C6.00001 11.4667 5.86669 11.3334 5.66669 11.3334C5.46669 11.3334 5.33337 11.4667 5.33337 11.6667V12.3334C5.33333 12.5333 5.46669 12.6667 5.66669 12.6667Z" fill="#3E474F"/>
<path d="M5.66669 14.6667C5.86669 14.6667 6.00001 14.5334 6.00001 14.3334V13.6667C6.00001 13.4667 5.86669 13.3334 5.66669 13.3334C5.46669 13.3334 5.33337 13.4667 5.33337 13.6667V14.3334C5.33333 14.5333 5.46669 14.6667 5.66669 14.6667Z" fill="#3E474F"/>
<path d="M7.6667 6.66669C7.8667 6.66669 8.00002 6.53337 8.00002 6.33337V5.66669C8.00002 5.46669 7.8667 5.33337 7.6667 5.33337C7.46669 5.33337 7.33337 5.46669 7.33337 5.66669V6.33337C7.33333 6.53334 7.46669 6.66669 7.6667 6.66669Z" fill="#3E474F"/>
<path d="M7.6667 4.66669C7.8667 4.66669 8.00002 4.53337 8.00002 4.33337V3.66669C8.00002 3.46669 7.8667 3.33337 7.6667 3.33337C7.46669 3.33337 7.33337 3.46669 7.33337 3.66669V4.33337C7.33333 4.53333 7.46669 4.66669 7.6667 4.66669Z" fill="#3E474F"/>
<path d="M7.6667 2.6667C7.8667 2.6667 8.00002 2.53337 8.00002 2.33337V1.66669C8.00002 1.46669 7.8667 1.33337 7.6667 1.33337C7.46669 1.33337 7.33337 1.46669 7.33337 1.66669V2.33337C7.33333 2.53334 7.46669 2.6667 7.6667 2.6667Z" fill="#3E474F"/>
<path d="M7.6667 14.6667C7.8667 14.6667 8.00002 14.5334 8.00002 14.3334V13.6667C8.00002 13.4667 7.8667 13.3334 7.6667 13.3334C7.46669 13.3334 7.33337 13.4667 7.33337 13.6667V14.3334C7.33333 14.5333 7.46669 14.6667 7.6667 14.6667Z" fill="#3E474F"/>
<path d="M7.6667 12.6667C7.8667 12.6667 8.00002 12.5334 8.00002 12.3334V11.6667C8.00002 11.4667 7.8667 11.3334 7.6667 11.3334C7.46669 11.3334 7.33337 11.4667 7.33337 11.6667V12.3334C7.33333 12.5333 7.46669 12.6667 7.6667 12.6667Z" fill="#3E474F"/>
<path d="M7.6667 10.6667C7.8667 10.6667 8.00002 10.5334 8.00002 10.3334V9.66668C8.00002 9.46668 7.8667 9.33336 7.6667 9.33336C7.46669 9.33336 7.33337 9.46668 7.33337 9.66668V10.3334C7.33333 10.5333 7.46669 10.6667 7.6667 10.6667Z" fill="#3E474F"/>
<path d="M7.6667 8.66671C7.8667 8.66671 8.00002 8.53339 8.00002 8.33339V7.66671C8.00002 7.46671 7.8667 7.33339 7.6667 7.33339C7.46669 7.33339 7.33337 7.46671 7.33337 7.66671V8.33339C7.33333 8.53335 7.46669 8.66671 7.6667 8.66671Z" fill="#3E474F"/>
<path d="M9.66663 4.66669C9.86664 4.66669 9.99996 4.53337 9.99996 4.33337V3.66669C9.99996 3.46669 9.86664 3.33337 9.66663 3.33337C9.46663 3.33337 9.33331 3.46669 9.33331 3.66669V4.33337C9.33327 4.53333 9.46663 4.66669 9.66663 4.66669Z" fill="#3E474F"/>
<path d="M9.66663 2.6667C9.86664 2.6667 9.99996 2.53337 9.99996 2.33337V1.66669C9.99996 1.46669 9.86664 1.33337 9.66663 1.33337C9.46663 1.33337 9.33331 1.46669 9.33331 1.66669V2.33337C9.33327 2.53334 9.46663 2.6667 9.66663 2.6667Z" fill="#3E474F"/>
</g>
<defs>
<clipPath id="clip0">
<rect width="20" height="20" fill="white"/>
</clipPath>
</defs>
</svg>
