<svg width="20" height="25" viewBox="0 0 20 25" fill="none" xmlns="http://www.w3.org/2000/svg">
<path d="M17.3371 21.5542C17.1939 21.648 13.7861 23.85 10 23.85C5.89812 23.85 2.78234 21.6406 2.65172 21.5466C2.60544 21.5133 2.56715 21.4661 2.54056 21.4098C2.51397 21.3534 2.5 21.2898 2.5 21.225C2.5 18.1972 3.27371 15.4266 4.67855 13.423C5.66129 12.0215 6.89434 11.0662 8.2543 10.6264C7.42182 10.151 6.74885 9.34993 6.34595 8.35483C5.94306 7.35974 5.8342 6.22979 6.03727 5.15063C6.24035 4.07148 6.74327 3.1073 7.4634 2.41652C8.18354 1.72573 9.07806 1.34943 10 1.34943C10.9219 1.34943 11.8165 1.72573 12.5366 2.41652C13.2567 3.1073 13.7597 4.07148 13.9627 5.15063C14.1658 6.22979 14.0569 7.35974 13.654 8.35483C13.2512 9.34993 12.5782 10.151 11.7457 10.6264C13.1057 11.0662 14.3387 12.0216 15.3214 13.423C16.7263 15.4266 17.5 18.1972 17.5 21.225C17.5 21.2924 17.4849 21.3585 17.4562 21.4164C17.4276 21.4744 17.3864 21.522 17.3371 21.5542V21.5542ZM13.4375 6.22501C13.4375 5.40916 13.2359 4.61164 12.8582 3.93328C12.4805 3.25493 11.9436 2.72622 11.3155 2.41401C10.6874 2.1018 9.99619 2.02011 9.32938 2.17927C8.66257 2.33844 8.05006 2.7313 7.56932 3.3082C7.08858 3.88509 6.76119 4.62009 6.62855 5.42026C6.49591 6.22044 6.56399 7.04984 6.82416 7.80358C7.08434 8.55733 7.52493 9.20156 8.09023 9.65482C8.65552 10.1081 9.32013 10.35 10 10.35C10.9114 10.3488 11.7851 9.91378 12.4295 9.14046C13.074 8.36714 13.4365 7.31865 13.4375 6.22501V6.22501ZM14.8432 13.9059C13.5742 12.0965 11.8544 11.1 10 11.1C8.14562 11.1 6.42578 12.0965 5.15676 13.9059C3.88016 15.7264 3.16238 18.2409 3.12641 21.0062C3.79512 21.4406 6.57391 23.1 10 23.1C13.1684 23.1 16.1523 21.4308 16.8734 20.9974C16.8359 18.2355 16.1185 15.7245 14.8432 13.9059Z" fill="#3E474F"/>
</svg>
