<svg width="16" height="16" viewBox="0 0 16 16" fill="none" xmlns="http://www.w3.org/2000/svg">
<g clip-path="url(#clip0)">
<path d="M14.7674 10.051C14.5473 10.051 14.3689 10.2294 14.3689 10.4495V13.9876C14.3681 14.6476 13.8334 15.1824 13.1734 15.1831H1.99241C1.33243 15.1824 0.797744 14.6476 0.796966 13.9876V3.60356C0.797744 2.94373 1.33243 2.40889 1.99241 2.40811H5.53051C5.75061 2.40811 5.92899 2.22973 5.92899 2.00963C5.92899 1.78968 5.75061 1.61115 5.53051 1.61115H1.99241C0.892539 1.61239 0.00124526 2.50368 0 3.60356V13.9878C0.00124526 15.0877 0.892539 15.9789 1.99241 15.9802H13.1734C14.2733 15.9789 15.1646 15.0877 15.1659 13.9878V10.4495C15.1659 10.2294 14.9875 10.051 14.7674 10.051Z" fill="white"/>
<path d="M15.0079 0.585957C14.3076 -0.114346 13.1722 -0.114346 12.4719 0.585957L5.36272 7.69514C5.314 7.74386 5.27882 7.80426 5.26045 7.87057L4.32558 11.2457C4.28713 11.3841 4.3262 11.5323 4.42769 11.6339C4.52933 11.7354 4.67752 11.7745 4.8159 11.7362L8.19102 10.8011C8.25733 10.7828 8.31772 10.7476 8.36644 10.6989L15.4755 3.58952C16.1747 2.88875 16.1747 1.75432 15.4755 1.05355L15.0079 0.585957ZM6.23098 7.95415L12.0493 2.13568L13.9257 4.01213L8.10727 9.8306L6.23098 7.95415ZM5.85616 8.70629L7.35529 10.2056L5.28162 10.7801L5.85616 8.70629ZM14.912 3.02604L14.4894 3.44865L12.6128 1.57205L13.0355 1.14944C13.4245 0.760449 14.0553 0.760449 14.4442 1.14944L14.912 1.61703C15.3004 2.00649 15.3004 2.63674 14.912 3.02604Z" fill="white"/>
</g>
<defs>
<clipPath id="clip0">
<rect width="16" height="16" fill="white"/>
</clipPath>
</defs>
</svg>
