<svg width="16" height="16" viewBox="0 0 16 16" fill="none" xmlns="http://www.w3.org/2000/svg">
<path d="M3.33334 3.3335H12C12.5304 3.3335 13.0392 3.54421 13.4142 3.91928C13.7893 4.29436 14 4.80306 14 5.3335V11.3335C14 11.8639 13.7893 12.3726 13.4142 12.7477C13.0392 13.1228 12.5304 13.3335 12 13.3335H3.33334C2.80291 13.3335 2.2942 13.1228 1.91913 12.7477C1.54406 12.3726 1.33334 11.8639 1.33334 11.3335V5.3335C1.33334 4.80306 1.54406 4.29436 1.91913 3.91928C2.2942 3.54421 2.80291 3.3335 3.33334 3.3335ZM3.33334 4.00016C3.00801 4.00016 2.70934 4.11683 2.47801 4.31083L7.66668 7.68016L12.8553 4.31083C12.6157 4.10977 12.3128 3.99975 12 4.00016H3.33334ZM7.66668 8.47483L2.08934 4.8535C2.0302 5.00661 1.99991 5.16935 2.00001 5.3335V11.3335C2.00001 11.6871 2.14049 12.0263 2.39053 12.2763C2.64058 12.5264 2.97972 12.6668 3.33334 12.6668H12C12.3536 12.6668 12.6928 12.5264 12.9428 12.2763C13.1929 12.0263 13.3333 11.6871 13.3333 11.3335V5.3335C13.3333 5.16416 13.302 5.00216 13.244 4.8535L7.66668 8.47416V8.47483Z" fill="black"/>
</svg>
