<svg width="36" height="44" viewBox="0 0 36 44" fill="none" xmlns="http://www.w3.org/2000/svg">
<g clip-path="url(#clip0)">
<path d="M27.6142 0.5C27.3857 0.5 27.1857 0.7 27.1857 0.928571C27.1857 1.15714 27.3857 1.35714 27.6142 1.35714H34.0428L23.3 12.1C23.1285 12.2714 23.1285 12.5286 23.3 12.7C23.3857 12.7857 23.5 12.8143 23.6142 12.8143C23.7285 12.8143 23.8428 12.7857 23.9285 12.7L34.7 1.92857V8.35714C34.7 8.58571 34.9 8.78571 35.1285 8.78571C35.3571 8.78571 35.5571 8.58571 35.5571 8.35714V0.5H27.6142Z" fill="#3E3F41"/>
<path d="M31.1286 13.1857C30.6714 13.1857 30.2714 13.5571 30.2714 14.0429V30.1286H18.6143V41.7857H2.21429V4.47143H23.2143C23.6714 4.47143 24.0714 4.1 24.0714 3.61428C24.0714 3.12857 23.7 2.75714 23.2143 2.75714H0.5V43.5H19.8714L31.9857 31.6143V14.0429C31.9857 13.5857 31.5857 13.1857 31.1286 13.1857ZM29.3286 31.8143L20.3 40.6714V31.8143H29.3286Z" fill="#3E3F41"/>
<path d="M15.4429 27.8143C15.585 27.8143 15.7001 27.6991 15.7001 27.5571C15.7001 27.4151 15.585 27.3 15.4429 27.3C15.3009 27.3 15.1858 27.4151 15.1858 27.5571C15.1858 27.6991 15.3009 27.8143 15.4429 27.8143Z" fill="#3E3F41"/>
<path d="M22.0714 14.5286C22.0142 14.4714 21.9571 14.4428 21.8999 14.4428H9.04279C8.98564 14.4428 8.89993 14.4714 8.87136 14.5286C8.81422 14.5857 8.78564 14.6428 8.78564 14.7V27.5285C8.78564 27.5857 8.81422 27.6714 8.87136 27.7C8.9285 27.7571 8.98564 27.7857 9.04279 27.7857H14.2714C14.4142 27.7857 14.5285 27.6714 14.5285 27.5285C14.5285 27.3857 14.4142 27.2714 14.2714 27.2714H12.6714L13.5571 26.0714C13.6428 25.9571 13.6142 25.7857 13.4999 25.7C13.3856 25.6143 13.2142 25.6428 13.1285 25.7571L12.0428 27.2714H9.29993V24.2428H11.4428C11.5571 24.5571 11.8428 24.7571 12.1856 24.7571C12.6142 24.7571 12.9571 24.4143 12.9571 23.9857C12.9571 23.5571 12.6142 23.2143 12.1856 23.2143C11.8428 23.2143 11.5571 23.4428 11.4428 23.7286H9.29993V21.4143H13.4714V22.8428C13.4714 22.9857 13.5856 23.1 13.7285 23.1H14.7856C14.9285 23.1 15.0428 22.9857 15.0428 22.8428V21.4143H16.5571L18.2714 22.7286C18.3285 22.7571 18.3856 22.7857 18.4428 22.7857C18.5285 22.7857 18.5856 22.7571 18.6428 22.6714C18.7285 22.5571 18.6999 22.3857 18.5856 22.3L16.8142 20.9286C16.7571 20.9 16.6999 20.8714 16.6428 20.8714H13.9856V19.1286C13.9856 18.9857 13.8714 18.8714 13.7285 18.8714C13.5856 18.8714 13.4714 18.9857 13.4714 19.1286V19.3857H11.6714V18.5286C11.9856 18.4143 12.1856 18.1286 12.1856 17.7857C12.1856 17.3571 11.8428 17.0143 11.4142 17.0143C10.9856 17.0143 10.6428 17.3571 10.6428 17.7857C10.6428 18.1286 10.8714 18.4143 11.1571 18.5286V19.6428C11.1571 19.7857 11.2714 19.9 11.4142 19.9H13.4714V20.8714H9.29993V14.9857H13.4714V16.5C13.4714 16.5571 13.4999 16.6143 13.5285 16.6714L14.8999 18.4428C14.9571 18.5 15.0142 18.5571 15.0999 18.5571C15.1571 18.5571 15.2142 18.5286 15.2714 18.5C15.3856 18.4143 15.4142 18.2428 15.3285 18.1286L14.0142 16.4143V14.9571H16.2999V16.9571C16.2999 17.1 16.4142 17.2143 16.5571 17.2143H17.1285V18.7857C17.1285 18.9286 17.2428 19.0428 17.3856 19.0428H18.4999C18.6142 19.3571 18.8999 19.5571 19.2428 19.5571C19.6714 19.5571 20.0142 19.2143 20.0142 18.7857C20.0142 18.3571 19.6714 18.0143 19.2428 18.0143C18.8999 18.0143 18.6142 18.2428 18.4999 18.5286H17.6428V17.2428H21.6142V20.8714H19.2714C19.1285 20.8714 19.0142 20.9857 19.0142 21.1286C19.0142 21.2714 19.1285 21.3857 19.2714 21.3857H21.6142V22.9286H20.3285C20.1856 22.9286 20.0714 23.0428 20.0714 23.1857C20.0714 24.2143 19.2142 25.0714 18.1856 25.0714C18.0428 25.0714 17.9285 25.1857 17.9285 25.3286V27.2714H16.6428C16.4999 27.2714 16.3856 27.3857 16.3856 27.5285C16.3856 27.6714 16.4999 27.7857 16.6428 27.7857H21.8999C21.9571 27.7857 22.0428 27.7571 22.0714 27.7C22.1285 27.6428 22.1571 27.5857 22.1571 27.5285V14.7C22.1285 14.6428 22.0999 14.5857 22.0714 14.5286ZM12.1571 23.7C12.2999 23.7 12.4142 23.8143 12.4142 23.9571C12.4142 24.1 12.2999 24.2143 12.1571 24.2143C12.0142 24.2143 11.8999 24.1 11.8999 23.9571C11.8999 23.8143 12.0142 23.7 12.1571 23.7ZM11.4142 17.5286C11.5571 17.5286 11.6714 17.6428 11.6714 17.7857C11.6714 17.9286 11.5571 18.0428 11.4142 18.0428C11.2714 18.0428 11.1571 17.9286 11.1571 17.7857C11.1571 17.6428 11.2714 17.5286 11.4142 17.5286ZM14.5285 22.5571H14.0142V21.3857H14.5285V22.5571ZM19.2428 18.5286C19.3856 18.5286 19.4999 18.6428 19.4999 18.7857C19.4999 18.9286 19.3856 19.0428 19.2428 19.0428C19.0999 19.0428 18.9856 18.9286 18.9856 18.7857C18.9856 18.6428 19.0999 18.5286 19.2428 18.5286ZM16.8142 16.7286V14.9857H21.6142V16.7286H16.8142ZM18.4428 25.5857C19.5571 25.4714 20.4714 24.5571 20.5856 23.4428H21.6428V27.2714H18.4428V25.5857Z" fill="#3E3F41"/>
</g>
<defs>
<clipPath id="clip0">
<rect x="0.5" y="0.5" width="35" height="43" fill="white"/>
</clipPath>
</defs>
</svg>
