<svg width="36" height="43" viewBox="0 0 36 43" fill="none" xmlns="http://www.w3.org/2000/svg">
<g clip-path="url(#clip0)">
<path d="M27.6142 0C27.3857 0 27.1857 0.2 27.1857 0.428571C27.1857 0.657142 27.3857 0.857142 27.6142 0.857142H34.0428L23.3 11.6C23.1285 11.7714 23.1285 12.0286 23.3 12.2C23.3857 12.2857 23.5 12.3143 23.6142 12.3143C23.7285 12.3143 23.8428 12.2857 23.9285 12.2L34.7 1.42857V7.85714C34.7 8.08571 34.9 8.28571 35.1285 8.28571C35.3571 8.28571 35.5571 8.08571 35.5571 7.85714V0H27.6142Z" fill="white"/>
<path d="M31.1286 12.6857C30.6714 12.6857 30.2714 13.0571 30.2714 13.5429V29.6286H18.6143V41.2857H2.21429V3.97143H23.2143C23.6714 3.97143 24.0714 3.60001 24.0714 3.11429C24.0714 2.62858 23.7 2.25715 23.2143 2.25715H0.5V43H19.8714L31.9857 31.1143V13.5429C31.9857 13.0857 31.5857 12.6857 31.1286 12.6857ZM29.3286 31.3143L20.3 40.1714V31.3143H29.3286Z" fill="white"/>
<path d="M15.4429 27.3143C15.585 27.3143 15.7001 27.1992 15.7001 27.0571C15.7001 26.9151 15.585 26.8 15.4429 26.8C15.3009 26.8 15.1858 26.9151 15.1858 27.0571C15.1858 27.1992 15.3009 27.3143 15.4429 27.3143Z" fill="white"/>
<path d="M22.0714 14.0286C22.0142 13.9714 21.9571 13.9429 21.8999 13.9429H9.04279C8.98564 13.9429 8.89993 13.9714 8.87136 14.0286C8.81422 14.0857 8.78564 14.1429 8.78564 14.2V27.0286C8.78564 27.0857 8.81422 27.1714 8.87136 27.2C8.9285 27.2571 8.98564 27.2857 9.04279 27.2857H14.2714C14.4142 27.2857 14.5285 27.1714 14.5285 27.0286C14.5285 26.8857 14.4142 26.7714 14.2714 26.7714H12.6714L13.5571 25.5714C13.6428 25.4571 13.6142 25.2857 13.4999 25.2C13.3856 25.1143 13.2142 25.1428 13.1285 25.2571L12.0428 26.7714H9.29993V23.7428H11.4428C11.5571 24.0571 11.8428 24.2571 12.1856 24.2571C12.6142 24.2571 12.9571 23.9143 12.9571 23.4857C12.9571 23.0571 12.6142 22.7143 12.1856 22.7143C11.8428 22.7143 11.5571 22.9428 11.4428 23.2286H9.29993V20.9143H13.4714V22.3428C13.4714 22.4857 13.5856 22.6 13.7285 22.6H14.7856C14.9285 22.6 15.0428 22.4857 15.0428 22.3428V20.9143H16.5571L18.2714 22.2286C18.3285 22.2571 18.3856 22.2857 18.4428 22.2857C18.5285 22.2857 18.5856 22.2571 18.6428 22.1714C18.7285 22.0571 18.6999 21.8857 18.5856 21.8L16.8142 20.4286C16.7571 20.4 16.6999 20.3714 16.6428 20.3714H13.9856V18.6286C13.9856 18.4857 13.8714 18.3714 13.7285 18.3714C13.5856 18.3714 13.4714 18.4857 13.4714 18.6286V18.8857H11.6714V18.0286C11.9856 17.9143 12.1856 17.6286 12.1856 17.2857C12.1856 16.8571 11.8428 16.5143 11.4142 16.5143C10.9856 16.5143 10.6428 16.8571 10.6428 17.2857C10.6428 17.6286 10.8714 17.9143 11.1571 18.0286V19.1428C11.1571 19.2857 11.2714 19.4 11.4142 19.4H13.4714V20.3714H9.29993V14.4857H13.4714V16C13.4714 16.0571 13.4999 16.1143 13.5285 16.1714L14.8999 17.9429C14.9571 18 15.0142 18.0571 15.0999 18.0571C15.1571 18.0571 15.2142 18.0286 15.2714 18C15.3856 17.9143 15.4142 17.7429 15.3285 17.6286L14.0142 15.9143V14.4571H16.2999V16.4571C16.2999 16.6 16.4142 16.7143 16.5571 16.7143H17.1285V18.2857C17.1285 18.4286 17.2428 18.5429 17.3856 18.5429H18.4999C18.6142 18.8571 18.8999 19.0571 19.2428 19.0571C19.6714 19.0571 20.0142 18.7143 20.0142 18.2857C20.0142 17.8571 19.6714 17.5143 19.2428 17.5143C18.8999 17.5143 18.6142 17.7428 18.4999 18.0286H17.6428V16.7429H21.6142V20.3714H19.2714C19.1285 20.3714 19.0142 20.4857 19.0142 20.6286C19.0142 20.7714 19.1285 20.8857 19.2714 20.8857H21.6142V22.4286H20.3285C20.1856 22.4286 20.0714 22.5428 20.0714 22.6857C20.0714 23.7143 19.2142 24.5714 18.1856 24.5714C18.0428 24.5714 17.9285 24.6857 17.9285 24.8286V26.7714H16.6428C16.4999 26.7714 16.3856 26.8857 16.3856 27.0286C16.3856 27.1714 16.4999 27.2857 16.6428 27.2857H21.8999C21.9571 27.2857 22.0428 27.2571 22.0714 27.2C22.1285 27.1428 22.1571 27.0857 22.1571 27.0286V14.2C22.1285 14.1429 22.0999 14.0857 22.0714 14.0286ZM12.1571 23.2C12.2999 23.2 12.4142 23.3143 12.4142 23.4571C12.4142 23.6 12.2999 23.7143 12.1571 23.7143C12.0142 23.7143 11.8999 23.6 11.8999 23.4571C11.8999 23.3143 12.0142 23.2 12.1571 23.2ZM11.4142 17.0286C11.5571 17.0286 11.6714 17.1429 11.6714 17.2857C11.6714 17.4286 11.5571 17.5429 11.4142 17.5429C11.2714 17.5429 11.1571 17.4286 11.1571 17.2857C11.1571 17.1429 11.2714 17.0286 11.4142 17.0286ZM14.5285 22.0571H14.0142V20.8857H14.5285V22.0571ZM19.2428 18.0286C19.3856 18.0286 19.4999 18.1429 19.4999 18.2857C19.4999 18.4286 19.3856 18.5429 19.2428 18.5429C19.0999 18.5429 18.9856 18.4286 18.9856 18.2857C18.9856 18.1429 19.0999 18.0286 19.2428 18.0286ZM16.8142 16.2286V14.4857H21.6142V16.2286H16.8142ZM18.4428 25.0857C19.5571 24.9714 20.4714 24.0571 20.5856 22.9428H21.6428V26.7714H18.4428V25.0857Z" fill="white"/>
</g>
<defs>
<clipPath id="clip0">
<rect x="0.5" width="35" height="43" fill="white"/>
</clipPath>
</defs>
</svg>
