<svg width="20" height="20" viewBox="0 0 20 20" fill="none" xmlns="http://www.w3.org/2000/svg">
<g clip-path="url(#clip0)">
<path d="M17.7083 19.1536H2.29172C1.02753 19.1536 0 18.1262 0 16.862V3.11203C0 1.84784 1.02753 0.820312 2.29172 0.820312H17.7083C18.9725 0.820312 20 1.84784 20 3.11203V16.862C20 18.1262 18.9725 19.1536 17.7083 19.1536ZM2.29172 2.07031C1.71753 2.07031 1.25 2.53784 1.25 3.11203V16.862C1.25 17.4362 1.71753 17.9036 2.29172 17.9036H17.7083C18.2825 17.9036 18.75 17.4362 18.75 16.862V3.11203C18.75 2.53784 18.2825 2.07031 17.7083 2.07031H2.29172Z" fill="white"/>
<path d="M19.375 7.07031H0.625C0.279999 7.07031 0 6.79031 0 6.44531C0 6.10031 0.279999 5.82031 0.625 5.82031H19.375C19.72 5.82031 20 6.10031 20 6.44531C20 6.79031 19.72 7.07031 19.375 7.07031Z" fill="white"/>
<path d="M19.375 11.2371H0.625C0.279999 11.2371 0 10.9571 0 10.6121C0 10.2671 0.279999 9.98706 0.625 9.98706H19.375C19.72 9.98706 20 10.2671 20 10.6121C20 10.9571 19.72 11.2371 19.375 11.2371Z" fill="white"/>
<path d="M19.375 15.4036H0.625C0.279999 15.4036 0 15.1236 0 14.7786C0 14.4336 0.279999 14.1536 0.625 14.1536H19.375C19.72 14.1536 20 14.4336 20 14.7786C20 15.1236 19.72 15.4036 19.375 15.4036Z" fill="white"/>
<path d="M5.20825 19.1536C4.86325 19.1536 4.58325 18.8736 4.58325 18.5286V6.44531C4.58325 6.10031 4.86325 5.82031 5.20825 5.82031C5.55325 5.82031 5.83325 6.10031 5.83325 6.44531V18.5286C5.83325 18.8736 5.55325 19.1536 5.20825 19.1536Z" fill="white"/>
<path d="M10 19.1536C9.655 19.1536 9.375 18.8736 9.375 18.5286V6.44531C9.375 6.10031 9.655 5.82031 10 5.82031C10.345 5.82031 10.625 6.10031 10.625 6.44531V18.5286C10.625 18.8736 10.345 19.1536 10 19.1536Z" fill="white"/>
<path d="M14.7917 19.1536C14.4467 19.1536 14.1667 18.8736 14.1667 18.5286V6.44531C14.1667 6.10031 14.4467 5.82031 14.7917 5.82031C15.1367 5.82031 15.4167 6.10031 15.4167 6.44531V18.5286C15.4167 18.8736 15.1367 19.1536 14.7917 19.1536Z" fill="white"/>
</g>
<defs>
<clipPath id="clip0">
<rect width="20" height="20" fill="white"/>
</clipPath>
</defs>
</svg>
