<svg width="24" height="24" viewBox="0 0 24 24" fill="none" xmlns="http://www.w3.org/2000/svg">
<path d="M4.99605 5H9.99605V10H8.99605V6.493C7.61072 7.07272 6.46877 8.1141 5.76416 9.44027C5.05954 10.7664 4.83571 12.2956 5.13068 13.7681C5.42565 15.2406 6.22123 16.5656 7.38229 17.518C8.54336 18.4705 9.99832 18.9916 11.5001 18.993C13.0947 18.9946 14.6342 18.4099 15.8258 17.3502C17.0174 16.2906 17.7779 14.8299 17.9626 13.246C18.1474 11.6621 17.7434 10.0656 16.8277 8.76015C15.9119 7.45471 14.5482 6.53145 12.9961 6.166V5.142C14.7153 5.49183 16.2575 6.43335 17.3544 7.80274C18.4512 9.17213 19.0332 10.8827 18.9992 12.6369C18.9652 14.3911 18.3172 16.0778 17.1681 17.4036C16.019 18.7294 14.4414 19.6104 12.7098 19.8933C10.9783 20.1762 9.20236 19.843 7.69105 18.9518C6.17973 18.0606 5.02869 16.6678 4.43817 15.0157C3.84766 13.3635 3.85505 11.5567 4.45907 9.9094C5.06309 8.26215 6.22549 6.87879 7.74405 6H4.99605V5Z" fill="white"/>
</svg>
