<svg width="52" height="52" viewBox="0 0 52 52" fill="none" xmlns="http://www.w3.org/2000/svg">
<path d="M34.125 26.8257V44.2812C34.125 46.7492 32.1902 48.75 29.7629 48.75H10.8672C8.43477 48.75 6.5 46.7492 6.5 44.2812V17.4688C6.50693 16.2857 6.97997 15.1531 7.81652 14.3165C8.65308 13.48 9.7857 13.0069 10.9688 13H20.5278C20.8587 13.0005 21.1861 13.0669 21.4911 13.1952C21.7961 13.3235 22.0725 13.5113 22.3041 13.7475L33.3897 25.0209C33.8613 25.5032 34.1253 26.1511 34.125 26.8257V26.8257Z" stroke="white" stroke-linejoin="round"/>
<path d="M20.3125 13V23.9688C20.3215 24.7202 20.6239 25.4383 21.1553 25.9697C21.6867 26.5011 22.4048 26.8035 23.1562 26.8125H34.125" stroke="white" stroke-linecap="round" stroke-linejoin="round"/>
<path d="M17.875 13V7.71875C17.8819 6.5357 18.355 5.40308 19.1915 4.56652C20.0281 3.72997 21.1607 3.25693 22.3438 3.25H31.8906C32.2233 3.25046 32.5526 3.31675 32.8596 3.44504C33.1665 3.57333 33.4451 3.76109 33.6791 3.9975L44.7647 15.2709C45.236 15.7481 45.5002 16.3918 45.5 17.0625V34.5312C45.5 36.9992 43.5652 39 41.1379 39H34.9375" stroke="white" stroke-linejoin="round"/>
<path d="M31.6875 3.25V14.2188C31.6965 14.9702 31.9989 15.6883 32.5303 16.2197C33.0617 16.7511 33.7798 17.0535 34.5312 17.0625H45.5" stroke="white" stroke-linecap="round" stroke-linejoin="round"/>
</svg>
