<svg width="20" height="20" viewBox="0 0 20 20" fill="none" xmlns="http://www.w3.org/2000/svg">
<path d="M14.6833 6.81958H5.31673C3.23017 6.81958 1.53259 8.51683 1.53259 10.6031V16.2165C1.53259 18.3027 3.23017 20 5.31673 20H14.6832C16.7698 20 18.4674 18.3027 18.4674 16.2165V10.6031C18.4674 8.51683 16.7698 6.81958 14.6833 6.81958ZM17.1732 16.2165C17.1732 17.5891 16.0562 18.7058 14.6833 18.7058H5.31673C3.94374 18.7058 2.82676 17.5891 2.82676 16.2165V10.6031C2.82676 9.23044 3.94374 8.11374 5.31673 8.11374H14.6833C16.0562 8.11374 17.1732 9.23044 17.1732 10.6031V16.2165Z" fill="white"/>
<path d="M9.99967 0C6.71104 0 4.03552 2.66852 4.03552 5.94862V7.46732C4.03552 7.82467 4.32525 8.1144 4.6826 8.1144C5.03996 8.1144 5.32969 7.82467 5.32969 7.46732V5.94862C5.32969 3.38213 7.42465 1.29416 9.99967 1.29416C12.5751 1.29416 14.6703 3.38213 14.6703 5.94862V7.46732C14.6703 7.82467 14.96 8.1144 15.3174 8.1144C15.6748 8.1144 15.9645 7.82467 15.9645 7.46732V5.94862C15.9645 2.66852 13.2887 0 9.99967 0Z" fill="white"/>
<path d="M10.1038 10.4892C9.05662 10.4892 8.20465 11.3412 8.20465 12.3884C8.20465 13.4356 9.05662 14.2876 10.1038 14.2876C11.1511 14.2876 12.003 13.4356 12.003 12.3884C12.003 11.3412 11.1511 10.4892 10.1038 10.4892ZM10.1038 12.9934C9.77022 12.9934 9.49881 12.722 9.49881 12.3884C9.49881 12.0548 9.77022 11.7834 10.1038 11.7834C10.4374 11.7834 10.7089 12.0548 10.7089 12.3884C10.7089 12.722 10.4374 12.9934 10.1038 12.9934Z" fill="white"/>
<path d="M10.1039 13.0756C9.74652 13.0756 9.45679 13.3653 9.45679 13.7227V16.2256C9.45679 16.583 9.74652 16.8727 10.1039 16.8727C10.4613 16.8727 10.7509 16.5829 10.7509 16.2256V13.7227C10.7509 13.3653 10.4613 13.0756 10.1039 13.0756Z" fill="white"/>
</svg>
