<svg width="52" height="53" viewBox="0 0 52 53" fill="none" xmlns="http://www.w3.org/2000/svg">
<path d="M34.125 27.2321V44.6877C34.125 47.1557 32.1902 49.1564 29.7629 49.1564H10.8672C8.43477 49.1564 6.5 47.1557 6.5 44.6877V17.8752C6.50693 16.6921 6.97997 15.5595 7.81652 14.723C8.65308 13.8864 9.7857 13.4134 10.9688 13.4064H20.5278C20.8587 13.4069 21.1861 13.4733 21.4911 13.6016C21.7961 13.73 22.0725 13.9177 22.3041 14.1539L33.3897 25.4274C33.8613 25.9097 34.1253 26.5575 34.125 27.2321V27.2321Z" stroke="black" stroke-linejoin="round"/>
<path d="M20.3125 13.4064V24.3752C20.3215 25.1266 20.6239 25.8447 21.1553 26.3761C21.6867 26.9075 22.4048 27.21 23.1562 27.2189H34.125" stroke="black" stroke-linecap="round" stroke-linejoin="round"/>
<path d="M17.875 13.4064V8.12518C17.8819 6.94213 18.355 5.80951 19.1915 4.97296C20.0281 4.1364 21.1607 3.66336 22.3438 3.65643H31.8906C32.2233 3.6569 32.5526 3.72318 32.8596 3.85147C33.1665 3.97976 33.4451 4.16752 33.6791 4.40393L44.7647 15.6774C45.236 16.1545 45.5002 16.7982 45.5 17.4689V34.9377C45.5 37.4057 43.5652 39.4064 41.1379 39.4064H34.9375" stroke="black" stroke-linejoin="round"/>
<path d="M31.6875 3.65643V14.6252C31.6965 15.3766 31.9989 16.0947 32.5303 16.6261C33.0617 17.1575 33.7798 17.46 34.5312 17.4689H45.5" stroke="black" stroke-linecap="round" stroke-linejoin="round"/>
</svg>
