<svg width="14" height="13" viewBox="0 0 14 13" fill="none" xmlns="http://www.w3.org/2000/svg">
<g clip-path="url(#clip0)">
<path d="M12.2294 7.90309C12.0593 7.90309 11.9215 8.04093 11.9215 8.21101V10.945C11.9209 11.455 11.5077 11.8683 10.9977 11.8687H2.35783C1.84784 11.8683 1.43468 11.455 1.43407 10.945V2.92094C1.43468 2.41107 1.84784 1.99779 2.35783 1.99718H5.09181C5.26189 1.99718 5.39973 1.85934 5.39973 1.68927C5.39973 1.51931 5.26189 1.38135 5.09181 1.38135H2.35783C1.50793 1.38231 0.8192 2.07104 0.818237 2.92094V10.9451C0.8192 11.795 1.50793 12.4837 2.35783 12.4847H10.9977C11.8476 12.4837 12.5363 11.795 12.5373 10.9451V8.21101C12.5373 8.04093 12.3995 7.90309 12.2294 7.90309Z" fill="#3E3F42"/>
<path d="M12.4153 0.589085C11.8742 0.0479418 10.9969 0.0479418 10.4557 0.589085L4.96226 6.08255C4.92462 6.12019 4.89743 6.16686 4.88324 6.2181L4.16083 8.82615C4.13112 8.93308 4.16131 9.04759 4.23974 9.12613C4.31828 9.20455 4.43279 9.23474 4.53972 9.20515L7.14777 8.48263C7.19901 8.46844 7.24567 8.44125 7.28332 8.4036L12.7767 2.91002C13.317 2.36852 13.317 1.49191 12.7767 0.950408L12.4153 0.589085ZM5.63319 6.28269L10.1292 1.7866L11.5792 3.23658L7.08305 7.73268L5.63319 6.28269ZM5.34355 6.86389L6.50198 8.02243L4.8996 8.46639L5.34355 6.86389ZM12.3412 2.47461L12.0147 2.80117L10.5646 1.35106L10.8913 1.0245C11.1918 0.72392 11.6792 0.72392 11.9798 1.0245L12.3412 1.38582C12.6413 1.68677 12.6413 2.17378 12.3412 2.47461Z" fill="#3E3F42"/>
</g>
<defs>
<clipPath id="clip0">
<rect x="0.818237" y="0.136353" width="12.3636" height="12.3636" fill="white"/>
</clipPath>
</defs>
</svg>
