<svg width="24" height="24" viewBox="0 0 24 24" fill="none" xmlns="http://www.w3.org/2000/svg">
<g clip-path="url(#clip0)">
<path d="M3.60996 9.71183L2.84724 8.94911L0.177717 11.6186C-0.0329134 11.8293 -0.0329134 12.1707 0.177717 12.3814L2.84724 15.0509L3.60996 14.2882L1.85952 12.5377L8.9452 12.5377V11.4623L1.85952 11.4623L3.60996 9.71183Z" fill="#031451"/>
<path d="M11.6186 0.177719L8.94907 2.84725L9.71179 3.60997L11.4622 1.85952L11.4622 8.94522L12.5377 8.94522L12.5377 1.85952L14.2881 3.60997L15.0509 2.84725L12.3813 0.177719C12.1707 -0.0329113 11.8292 -0.0329114 11.6186 0.177719Z" fill="#031451"/>
<path d="M22.1402 11.4623L15.0546 11.4623V12.5377L22.1402 12.5377L20.3898 14.2882L21.1525 15.0509L23.8221 12.3814C24.0327 12.1707 24.0327 11.8293 23.8221 11.6186L21.1525 8.9491L20.3898 9.71183L22.1402 11.4623Z" fill="#031451"/>
<path d="M11.4584 15.0509L11.4622 22.1404L9.71173 20.3899L8.949 21.1527L11.6185 23.8222C11.8292 24.0328 12.1706 24.0328 12.3813 23.8222L15.0508 21.1527L14.2881 20.3899L12.5376 22.1404L12.5376 15.0547L11.4584 15.0509Z" fill="#031451"/>
</g>
<defs>
<clipPath id="clip0">
<rect width="24" height="24" fill="white"/>
</clipPath>
</defs>
</svg>
