<svg width="40" height="40" viewBox="0 0 40 40" fill="none" xmlns="http://www.w3.org/2000/svg">
<path d="M40 0H0V40H40V0Z" fill="#031451"/>
<path d="M22.693 22.361C22.749 22.361 22.805 22.3727 22.861 22.396C22.917 22.4147 22.9707 22.4497 23.022 22.501L23.96 23.488C23.5493 24.0247 23.0337 24.4307 22.413 24.706C21.797 24.9767 21.0667 25.112 20.222 25.112C19.4473 25.112 18.752 24.9813 18.136 24.72C17.5247 24.454 17.0043 24.09 16.575 23.628C16.1503 23.1613 15.8237 22.6107 15.595 21.976C15.3663 21.3367 15.252 20.6437 15.252 19.897C15.252 19.1363 15.3827 18.4387 15.644 17.804C15.9053 17.1647 16.2693 16.614 16.736 16.152C17.2073 15.69 17.7697 15.3307 18.423 15.074C19.0763 14.8173 19.7973 14.689 20.586 14.689C20.9687 14.689 21.328 14.724 21.664 14.794C22.0047 14.8593 22.322 14.9527 22.616 15.074C22.91 15.1907 23.1807 15.333 23.428 15.501C23.6753 15.6643 23.8947 15.8463 24.086 16.047L23.288 17.118C23.2367 17.1833 23.176 17.244 23.106 17.3C23.036 17.3513 22.938 17.377 22.812 17.377C22.728 17.377 22.6487 17.3583 22.574 17.321C22.4993 17.2837 22.42 17.2393 22.336 17.188C22.252 17.132 22.1587 17.0737 22.056 17.013C21.958 16.9477 21.839 16.8893 21.699 16.838C21.5637 16.782 21.4027 16.7353 21.216 16.698C21.034 16.6607 20.8193 16.642 20.572 16.642C20.1427 16.642 19.7507 16.719 19.396 16.873C19.0413 17.0223 18.7357 17.2393 18.479 17.524C18.227 17.804 18.0287 18.1447 17.884 18.546C17.744 18.9473 17.674 19.3977 17.674 19.897C17.674 20.4197 17.744 20.884 17.884 21.29C18.0287 21.696 18.2223 22.039 18.465 22.319C18.7123 22.5943 18.9993 22.8043 19.326 22.949C19.6527 23.0937 20.0027 23.166 20.376 23.166C20.5907 23.166 20.7867 23.1567 20.964 23.138C21.1413 23.1147 21.3047 23.0773 21.454 23.026C21.608 22.9747 21.7527 22.9093 21.888 22.83C22.028 22.746 22.168 22.6433 22.308 22.522C22.364 22.4753 22.4247 22.438 22.49 22.41C22.5553 22.3773 22.623 22.361 22.693 22.361Z" fill="white"/>
</svg>
