<svg width="17" height="16" viewBox="0 0 17 16" fill="none" xmlns="http://www.w3.org/2000/svg">
<g clip-path="url(#clip0)">
<path d="M11.7881 5.44612H4.26377C2.5876 5.44612 1.2239 6.80519 1.2239 8.47566V12.9705C1.2239 14.641 2.5876 16 4.26377 16H11.7881C13.4642 16 14.8279 14.641 14.8279 12.9705V8.47566C14.8279 6.80516 13.4643 5.44612 11.7881 5.44612ZM13.7883 12.9705C13.7883 14.0696 12.891 14.9638 11.7881 14.9638H4.26377C3.16083 14.9638 2.26353 14.0696 2.26353 12.9705V8.47566C2.26353 7.37656 3.16083 6.48239 4.26377 6.48239H11.7881C12.891 6.48239 13.7883 7.37656 13.7883 8.47566V12.9705Z" fill="white"/>
<path d="M12.5447 3.13896C11.8527 1.26146 10.0406 0 8.03553 0C5.38825 0 3.23454 2.12885 3.23454 4.7456V5.96477C3.23454 6.25091 3.46728 6.4829 3.75435 6.4829C4.04145 6.4829 4.27416 6.25091 4.27416 5.96477V4.7456C4.27416 2.70026 5.96151 1.03627 8.03553 1.03627C9.60663 1.03627 11.0266 2.02487 11.5689 3.49631C11.6679 3.7649 11.9665 3.90266 12.236 3.80398C12.5055 3.70531 12.6437 3.40755 12.5447 3.13896Z" fill="white"/>
<path d="M8.10934 8.38187C7.26809 8.38187 6.58369 9.06406 6.58369 9.90259C6.58369 10.7411 7.26809 11.4233 8.10934 11.4233C8.9506 11.4233 9.635 10.7411 9.635 9.90259C9.635 9.06406 8.9506 8.38187 8.10934 8.38187ZM8.10934 10.387C7.84135 10.387 7.62332 10.1697 7.62332 9.90259C7.62332 9.63546 7.84135 9.41814 8.10934 9.41814C8.37734 9.41814 8.59537 9.63546 8.59537 9.90259C8.59537 10.1697 8.37734 10.387 8.10934 10.387Z" fill="white"/>
<path d="M8.10934 10.4814C7.82228 10.4814 7.58953 10.7133 7.58953 10.9995V13.0031C7.58953 13.2893 7.82228 13.5213 8.10934 13.5213C8.39644 13.5213 8.62916 13.2893 8.62916 13.0031V10.9995C8.62916 10.7133 8.39644 10.4814 8.10934 10.4814Z" fill="white"/>
</g>
<defs>
<clipPath id="clip0">
<rect width="16.0518" height="16" rx="5" fill="white"/>
</clipPath>
</defs>
</svg>
