<?xml version="1.0" encoding="utf-8"?>
<!-- Generator: Adobe Illustrator 16.0.0, SVG Export Plug-In . SVG Version: 6.00 Build 0)  -->
<!DOCTYPE svg PUBLIC "-//W3C//DTD SVG 1.1//EN" "http://www.w3.org/Graphics/SVG/1.1/DTD/svg11.dtd">
<svg version="1.1" id="Calque_1" xmlns="http://www.w3.org/2000/svg" xmlns:xlink="http://www.w3.org/1999/xlink" x="0px" y="0px"
	 width="64px" height="64px" viewBox="0 0 64 64" enable-background="new 0 0 64 64" xml:space="preserve">
<circle fill="none" stroke="#C30F08" stroke-width="4" stroke-miterlimit="10" cx="32.195" cy="32.123" r="29.646"/>
<path fill="#C30F08" d="M47.278,29.657L33.844,16.222c-0.366-0.366-0.871-0.476-1.344-0.384c-0.473-0.092-0.978,0.018-1.344,0.384
	L17.722,29.657c-0.585,0.585-0.586,1.535,0,2.121s1.536,0.586,2.121,0l11.185-11.185C31.01,20.724,31,20.86,31,21v22
	c0,1.104,0.58,2,1.5,2s1.5-0.896,1.5-2V21c0-0.14-0.01-0.276-0.027-0.407l11.185,11.185c0.585,0.586,1.535,0.586,2.121,0
	S47.863,30.242,47.278,29.657z"/>
</svg>
