<svg width="24" height="24" viewBox="0 0 24 24" fill="none" xmlns="http://www.w3.org/2000/svg">
<path d="M20.8046 20.9543C20.6327 21.048 16.5434 23.2501 12 23.2501C7.07775 23.2501 3.33881 21.0407 3.18206 20.9467C3.12653 20.9133 3.08058 20.8662 3.04867 20.8099C3.01677 20.7535 3 20.6898 3 20.6251C3 17.5973 3.92845 14.8267 5.61427 12.8231C6.79355 11.4216 8.2732 10.4663 9.90516 10.0265C8.90618 9.55107 8.09861 8.75001 7.61514 7.75492C7.13167 6.75982 7.00104 5.62987 7.24473 4.55072C7.48842 3.47156 8.09192 2.50738 8.95608 1.8166C9.82025 1.12582 10.8937 0.749512 12 0.749512C13.1063 0.749512 14.1798 1.12582 15.0439 1.8166C15.9081 2.50738 16.5116 3.47156 16.7553 4.55072C16.999 5.62987 16.8683 6.75982 16.3849 7.75492C15.9014 8.75001 15.0938 9.55107 14.0948 10.0265C15.7268 10.4663 17.2065 11.4217 18.3857 12.8231C20.0715 14.8267 21 17.5973 21 20.6251C21 20.6925 20.9819 20.7586 20.9475 20.8165C20.9131 20.8744 20.8637 20.922 20.8046 20.9543ZM16.125 5.6251C16.125 4.80925 15.8831 4.01172 15.4298 3.33337C14.9766 2.65502 14.3323 2.1263 13.5786 1.81409C12.8248 1.50188 11.9954 1.42019 11.1953 1.57936C10.3951 1.73852 9.66008 2.13139 9.08318 2.70828C8.50629 3.28517 8.11342 4.02018 7.95426 4.82035C7.7951 5.62052 7.87679 6.44992 8.189 7.20366C8.50121 7.95741 9.02992 8.60165 9.70827 9.05491C10.3866 9.50817 11.1842 9.75009 12 9.75009C13.0936 9.74885 14.1421 9.31386 14.9154 8.54054C15.6888 7.76722 16.1238 6.71873 16.125 5.6251ZM17.8119 13.306C16.2891 11.4966 14.2253 10.5001 12 10.5001C9.77475 10.5001 7.71094 11.4966 6.18811 13.306C4.65619 15.1265 3.79486 17.641 3.75169 20.4063C4.55414 20.8407 7.88869 22.5001 12 22.5001C15.802 22.5001 19.3828 20.8309 20.2481 20.3975C20.2031 17.6355 19.3422 15.1246 17.8119 13.306Z" fill="white"/>
</svg>
