<svg width="21" height="23" viewBox="0 0 21 23" fill="none" xmlns="http://www.w3.org/2000/svg">
<path d="M10.2195 22.4941C10.0038 22.4941 9.8289 22.3045 9.8289 22.0705C9.8289 21.8366 10.0038 21.647 10.2195 21.647C10.4353 21.647 10.6102 21.8366 10.6102 22.0705C10.6102 22.3045 10.4353 22.4941 10.2195 22.4941Z" fill="#031451"/>
<path d="M0.314489 0.931479C0.387106 0.852653 0.487888 0.807373 0.590622 0.807373H19.8094C19.9121 0.807373 20.0129 0.852653 20.0855 0.931479C20.1582 1.01031 20.2 1.11954 20.2 1.23094V22.0706C20.2 22.1819 20.1582 22.2912 20.0855 22.37C20.0129 22.4488 19.9121 22.4941 19.8094 22.4941H11.9773C11.7621 22.4941 11.5867 22.3039 11.5867 22.0706C11.5867 21.8372 11.7621 21.647 11.9773 21.647H14.3557L13.0479 19.6932C12.9212 19.5039 12.96 19.239 13.1346 19.1016C13.3092 18.9642 13.5535 19.0063 13.6802 19.1956L15.321 21.647H19.4187V16.6912H16.2266C16.0653 17.1842 15.6311 17.5384 15.1219 17.5384C14.4757 17.5384 13.95 16.9683 13.95 16.2677C13.95 15.567 14.4757 14.9969 15.1219 14.9969C15.6311 14.9969 16.0653 15.3511 16.2266 15.8441H19.4187V12.0743H13.1687V14.4039C13.1687 14.6378 12.9938 14.8275 12.7781 14.8275H11.2156C10.9999 14.8275 10.825 14.6378 10.825 14.4039V12.0743H8.53738L5.98703 14.2298C5.9157 14.29 5.83113 14.3193 5.74714 14.3192C5.63086 14.3192 5.51578 14.2632 5.43875 14.156C5.30613 13.9715 5.33656 13.7054 5.50672 13.5616L8.16297 11.3166C8.2316 11.2586 8.31609 11.2272 8.40308 11.2272H12.3875V8.38926C12.3875 8.15537 12.5624 7.96569 12.7781 7.96569C12.9938 7.96569 13.1687 8.15537 13.1687 8.38926V8.81283H15.8641V7.42691C15.4094 7.25206 15.0828 6.78127 15.0828 6.22906C15.0828 5.52839 15.6085 4.95835 16.2547 4.95835C16.9009 4.95835 17.4266 5.52839 17.4266 6.22906C17.4266 6.78122 17.1 7.25206 16.6453 7.42691V9.2364C16.6453 9.4703 16.4704 9.65997 16.2547 9.65997H13.1687V11.2272H19.4187V1.65451H13.1687V4.15357C13.1687 4.24794 13.1397 4.33956 13.0862 4.41394L11.0159 7.29421C10.9389 7.40133 10.8238 7.45745 10.7075 7.45741C10.6236 7.45741 10.539 7.42823 10.4677 7.36795C10.2975 7.22411 10.2671 6.95798 10.3997 6.77347L12.3875 4.00799V1.65451H8.95V4.916C8.95 5.14989 8.77507 5.33956 8.55937 5.33956H7.7V7.83862C7.7 8.07252 7.52507 8.26219 7.30937 8.26219H5.64062C5.47937 8.75518 5.04519 9.10933 4.53593 9.10933C3.88976 9.10933 3.36406 8.53929 3.36406 7.83862C3.36406 7.13795 3.88976 6.56791 4.53593 6.56791C5.04515 6.56791 5.47937 6.92206 5.64062 7.41505H6.91875V5.33956H0.981247V11.2272H4.49687C4.71257 11.2272 4.8875 11.4169 4.8875 11.6507C4.8875 11.8846 4.71257 12.0743 4.49687 12.0743H0.981247V14.5734H2.91484C3.13054 14.5734 3.30547 14.763 3.30547 14.9969C3.30547 16.6902 4.5759 18.0678 6.1375 18.0678C6.3532 18.0678 6.52812 18.2575 6.52812 18.4914V21.647H8.46172C8.67695 21.647 8.85234 21.8372 8.85234 22.0706C8.85234 22.3039 8.67695 22.4941 8.46172 22.4941H0.590622C0.487888 22.4941 0.387106 22.4488 0.314489 22.37C0.241795 22.2912 0.199997 22.1819 0.199997 22.0706V1.23094C0.199997 1.11954 0.241795 1.01026 0.314489 0.931479ZM15.1219 15.8441C14.9065 15.8441 14.7312 16.0341 14.7312 16.2677C14.7312 16.5012 14.9065 16.6912 15.1219 16.6912C15.3373 16.6912 15.5125 16.5012 15.5125 16.2677C15.5125 16.0341 15.3373 15.8441 15.1219 15.8441ZM16.2547 5.80549C16.0393 5.80549 15.8641 5.9955 15.8641 6.22906C15.8641 6.46262 16.0393 6.65263 16.2547 6.65263C16.4701 6.65263 16.6453 6.46262 16.6453 6.22906C16.6453 5.9955 16.4701 5.80549 16.2547 5.80549ZM11.6062 13.9804H12.3875V12.0743H11.6062V13.9804ZM4.53593 7.41505C4.32054 7.41505 4.14531 7.60507 4.14531 7.83862C4.14531 8.07218 4.32054 8.26219 4.53593 8.26219C4.75132 8.26219 4.92656 8.07218 4.92656 7.83862C4.92656 7.60507 4.75132 7.41505 4.53593 7.41505ZM8.16875 4.49243V1.65451H0.981247V4.49243H8.16875ZM5.74687 18.8922C4.06582 18.6954 2.72668 17.2433 2.54519 15.4205H0.981247V21.647H5.74687V18.8922Z" fill="#031451"/>
</svg>
