<?xml version="1.0" encoding="utf-8"?>
<!-- Generator: Adobe Illustrator 16.0.0, SVG Export Plug-In . SVG Version: 6.00 Build 0)  -->
<!DOCTYPE svg PUBLIC "-//W3C//DTD SVG 1.1//EN" "http://www.w3.org/Graphics/SVG/1.1/DTD/svg11.dtd">
<svg version="1.1" id="Calque_1" xmlns="http://www.w3.org/2000/svg" xmlns:xlink="http://www.w3.org/1999/xlink" x="0px" y="0px"
	 width="16px" height="16px" viewBox="0 0 16 16" enable-background="new 0 0 16 16" xml:space="preserve">
<path fill="none" stroke="#333333" stroke-linecap="round" stroke-linejoin="round" d="M7.333,2.667H2.667
	c-0.354,0-0.693,0.141-0.943,0.391S1.333,3.646,1.333,4v9.333c0,0.354,0.141,0.692,0.391,0.942s0.589,0.391,0.943,0.391H12
	c0.354,0,0.693-0.141,0.943-0.391s0.391-0.588,0.391-0.942V8.666"/>
<path fill="none" stroke="#333333" stroke-linecap="round" stroke-linejoin="round" d="M12.334,1.667
	c0.265-0.265,0.625-0.414,1-0.414s0.734,0.149,1,0.414c0.265,0.265,0.414,0.625,0.414,1s-0.149,0.735-0.414,1L8,10l-2.667,0.666L6,8
	L12.334,1.667z"/>
</svg>
