<svg width="20" height="21" viewBox="0 0 20 21" fill="none" xmlns="http://www.w3.org/2000/svg">
<path d="M2.50559 16.4079C2.5105 16.2437 2.51863 16.0804 2.52994 15.9183C1.74554 15.6444 1.18649 15.3558 0.959367 15.2306C0.985745 13.51 1.51212 11.9454 2.44829 10.8127C3.35089 9.72079 4.56449 9.10466 5.87746 9.06855C6.12949 8.8693 6.37834 8.68642 6.60158 8.52545C6.40632 8.5745 6.20445 8.59998 6 8.60021C5.50143 8.60021 5.01405 8.4497 4.5995 8.16767C4.18495 7.88565 3.86185 7.4848 3.67105 7.01581C3.48026 6.54683 3.43033 6.03077 3.5276 5.5329C3.62487 5.03503 3.86496 4.5777 4.2175 4.21876C4.57004 3.85981 5.01922 3.61537 5.50821 3.51633C5.66711 3.48415 5.8279 3.4678 5.98838 3.46704C6.00195 3.38101 6.01824 3.29523 6.03727 3.20982C6.05289 3.13974 6.07028 3.07024 6.08941 3.00137C6.05965 3.00046 6.02984 3 6 3C5.32391 3 4.66793 3.23414 4.13983 3.66395C3.61173 4.09376 3.24292 4.69368 3.094 5.36513C2.94508 6.03659 3.02491 6.73965 3.32036 7.3588C3.61582 7.97796 4.10933 8.47639 4.71982 8.77219C3.72252 9.04584 2.81828 9.64023 2.0976 10.5123C1.06739 11.7589 0.5 13.4828 0.5 15.3667C0.5 15.407 0.510245 15.4466 0.529744 15.4817C0.549243 15.5167 0.577323 15.5461 0.611261 15.5668C0.663845 15.5989 1.37613 16.0277 2.50559 16.4079Z" fill="#3E474F"/>
<path d="M13.9106 3.00137C13.9403 3.00046 13.9702 3 14 3C14.6761 3 15.3321 3.23414 15.8602 3.66395C16.3882 4.09376 16.7571 4.69368 16.906 5.36513C17.0549 6.03659 16.9751 6.73965 16.6796 7.3588C16.3842 7.97796 15.8907 8.47639 15.2802 8.77219C16.2775 9.04584 17.1817 9.64029 17.9024 10.5123C18.9326 11.7589 19.5 13.4828 19.5 15.3667C19.5 15.4086 19.4889 15.4498 19.4679 15.4858C19.4469 15.5219 19.4167 15.5515 19.3805 15.5715C19.3246 15.6026 18.5888 16.0062 17.4934 16.3765C17.4881 16.2126 17.4796 16.0497 17.4679 15.8879C18.2337 15.621 18.8036 15.3459 19.0405 15.2251C19.013 13.5066 18.4869 11.9443 17.5517 10.8127C16.6467 9.71788 15.4291 9.10137 14.112 9.06827C13.8359 8.85545 13.5633 8.66501 13.3231 8.50595C13.5423 8.56817 13.77 8.60021 14 8.60021C14.6684 8.59947 15.3091 8.32879 15.7816 7.84763C16.2543 7.36646 16.5201 6.71409 16.5208 6.03362C16.5208 5.52599 16.373 5.02977 16.096 4.60769C15.819 4.18561 15.4253 3.85665 14.9647 3.66239C14.661 3.5343 14.3372 3.46858 14.0116 3.46705C13.998 3.38102 13.9817 3.29523 13.9627 3.20982C13.9471 3.13974 13.9297 3.07024 13.9106 3.00137Z" fill="#3E474F"/>
<path d="M16.3588 17.2654C16.2347 17.3363 13.2813 19 10 19C6.44504 19 3.74469 17.3307 3.63149 17.2597C3.59138 17.2345 3.5582 17.1989 3.53515 17.1563C3.51211 17.1137 3.5 17.0657 3.5 17.0167C3.5 14.7291 4.17055 12.6358 5.38808 11.122C6.23978 10.0631 7.30843 9.34137 8.48706 9.00909C7.76558 8.64991 7.18234 8.04467 6.83316 7.29283C6.48399 6.54101 6.38964 5.68729 6.56563 4.87194C6.74164 4.05661 7.1775 3.32813 7.80161 2.80623C8.42573 2.28431 9.20099 2 10 2C10.799 2 11.5743 2.28431 12.1984 2.80623C12.8225 3.32813 13.2584 4.05661 13.4343 4.87194C13.6104 5.68729 13.516 6.54101 13.1668 7.29283C12.8177 8.04467 12.2344 8.64991 11.5129 9.00909C12.6916 9.34137 13.7602 10.0632 14.6119 11.122C15.8295 12.6358 16.5 14.7291 16.5 17.0167C16.5 17.0676 16.4869 17.1176 16.462 17.1613C16.4373 17.2051 16.4015 17.2411 16.3588 17.2654ZM12.9792 5.68368C12.9792 5.06727 12.8044 4.46472 12.4771 3.95219C12.1498 3.43967 11.6845 3.04021 11.1401 2.80433C10.5957 2.56844 9.9967 2.50672 9.4188 2.62697C8.84089 2.74723 8.31005 3.04405 7.89341 3.47992C7.47677 3.91578 7.19303 4.4711 7.07808 5.07566C6.96312 5.68023 7.02212 6.30687 7.24761 6.87634C7.47309 7.44583 7.85494 7.93257 8.34487 8.27502C8.83478 8.61749 9.41078 8.80026 10 8.80026C10.7899 8.79935 11.5471 8.47068 12.1056 7.88641C12.6641 7.30213 12.9783 6.50996 12.9792 5.68368ZM14.1974 11.4869C13.0976 10.1198 11.6071 9.36691 10 9.36691C8.39287 9.36691 6.90234 10.1198 5.80253 11.4869C4.69614 12.8623 4.07406 14.7621 4.04289 16.8514C4.62244 17.1796 7.03072 18.4333 10 18.4333C12.7459 18.4333 15.332 17.1722 15.9569 16.8448C15.9244 14.758 15.3027 12.8609 14.1974 11.4869Z" fill="#3E474F"/>
</svg>
