<svg width="20" height="21" viewBox="0 0 20 21" fill="none" xmlns="http://www.w3.org/2000/svg">
<path d="M17.3371 18.1055C17.1939 18.1843 13.7861 20.034 10 20.034C5.89812 20.034 2.78234 18.1781 2.65172 18.0991C2.60544 18.0712 2.56715 18.0315 2.54056 17.9842C2.51397 17.9369 2.5 17.8834 2.5 17.829C2.5 15.2856 3.27371 12.9583 4.67855 11.2753C5.66129 10.0981 6.89434 9.29561 8.2543 8.92618C7.42182 8.52684 6.74885 7.85394 6.34595 7.01806C5.94306 6.18218 5.8342 5.23302 6.03727 4.32653C6.24035 3.42004 6.74327 2.61013 7.4634 2.02988C8.18354 1.44961 9.07806 1.13352 10 1.13352C10.9219 1.13352 11.8165 1.44961 12.5366 2.02988C13.2567 2.61013 13.7597 3.42004 13.9627 4.32653C14.1658 5.23302 14.0569 6.18218 13.654 7.01806C13.2512 7.85394 12.5782 8.52684 11.7457 8.92618C13.1057 9.29561 14.3387 10.0981 15.3214 11.2753C16.7263 12.9583 17.5 15.2856 17.5 17.829C17.5 17.8856 17.4849 17.9411 17.4562 17.9898C17.4276 18.0385 17.3864 18.0785 17.3371 18.1055ZM13.4375 5.22901C13.4375 4.54369 13.2359 3.87378 12.8582 3.30396C12.4805 2.73414 11.9436 2.29003 11.3155 2.02777C10.6874 1.76551 9.99619 1.69689 9.32938 1.83059C8.66257 1.96429 8.05006 2.29429 7.56932 2.77889C7.08858 3.26348 6.76119 3.88088 6.62855 4.55302C6.49591 5.22517 6.56399 5.92187 6.82416 6.55501C7.08434 7.18816 7.52493 7.72931 8.09023 8.11005C8.65552 8.4908 9.32013 8.694 10 8.694C10.9114 8.69299 11.7851 8.32758 12.4295 7.67799C13.074 7.0284 13.4365 6.14767 13.4375 5.22901ZM14.8432 11.681C13.5742 10.1611 11.8544 9.324 10 9.324C8.14562 9.324 6.42578 10.1611 5.15676 11.681C3.88016 13.2102 3.16238 15.3224 3.12641 17.6452C3.79512 18.0101 6.57391 19.404 10 19.404C13.1684 19.404 16.1523 18.0019 16.8734 17.6378C16.8359 15.3178 16.1185 13.2086 14.8432 11.681Z" fill="#3E474F"/>
</svg>
