<svg width="42" height="42" viewBox="0 0 42 42" fill="none" xmlns="http://www.w3.org/2000/svg">
<path d="M21.041 42C20.588 42 20.2207 41.6327 20.2207 41.1797C20.2207 40.7266 20.588 40.3594 21.041 40.3594C21.4941 40.3594 21.8613 40.7266 21.8613 41.1797C21.8613 41.6327 21.4941 42 21.041 42Z" fill="#3E3F41"/>
<path d="M0.240433 0.240352C0.392929 0.0876914 0.604568 0 0.820312 0H41.1797C41.3954 0 41.6071 0.0876914 41.7596 0.240352C41.9122 0.393012 42 0.60457 42 0.820312V41.1797C42 41.3954 41.9123 41.6071 41.7596 41.7596C41.6071 41.9122 41.3954 42 41.1797 42H24.7324C24.2804 42 23.9121 41.6317 23.9121 41.1797C23.9121 40.7277 24.2804 40.3594 24.7324 40.3594H29.727L26.9807 36.5756C26.7145 36.2089 26.796 35.696 27.1627 35.4299C27.5293 35.1638 28.0423 35.2452 28.3084 35.6119L31.7541 40.3594H40.3594V30.7617H33.6558C33.3172 31.7165 32.4054 32.4023 31.3359 32.4023C29.979 32.4023 28.875 31.2984 28.875 29.9414C28.875 28.5844 29.979 27.4805 31.3359 27.4805C32.4053 27.4805 33.3172 28.1663 33.6558 29.1211H40.3594V21.8203H27.2344V26.332C27.2344 26.785 26.867 27.1523 26.4141 27.1523H23.1328C22.6798 27.1523 22.3125 26.785 22.3125 26.332V21.8203H17.5085L12.1528 25.9947C12.003 26.1115 11.8254 26.1681 11.649 26.168C11.4048 26.168 11.1631 26.0594 11.0014 25.8519C10.7229 25.4946 10.7868 24.9791 11.1441 24.7006L16.7222 20.3529C16.8664 20.2406 17.0438 20.1797 17.2265 20.1797H25.5938V14.6836C25.5938 14.2306 25.9611 13.8633 26.4141 13.8633C26.867 13.8633 27.2344 14.2306 27.2344 14.6836V15.5039H32.8945V12.8198C31.9398 12.4812 31.2539 11.5694 31.2539 10.5C31.2539 9.14304 32.3579 8.03906 33.7148 8.03906C35.0718 8.03906 36.1758 9.14304 36.1758 10.5C36.1758 11.5694 35.4899 12.4812 34.5352 12.8198V16.3242C34.5352 16.7772 34.1678 17.1445 33.7148 17.1445H27.2344V20.1797H40.3594V1.64062H27.2344V6.48047C27.2344 6.66323 27.1734 6.84067 27.0611 6.98471L22.7135 12.5628C22.5517 12.7703 22.31 12.879 22.0658 12.8789C21.8895 12.8789 21.712 12.8224 21.5621 12.7057C21.2048 12.4271 21.1408 11.9117 21.4193 11.5543L25.5938 6.19853V1.64062H18.375V7.95703C18.375 8.41001 18.0077 8.77734 17.5547 8.77734H15.75V13.6172C15.75 14.0702 15.3827 14.4375 14.9297 14.4375H11.4253C11.0867 15.3923 10.1749 16.0781 9.10547 16.0781C7.74851 16.0781 6.64453 14.9741 6.64453 13.6172C6.64453 12.2602 7.74851 11.1562 9.10547 11.1562C10.1748 11.1562 11.0867 11.8421 11.4253 12.7969H14.1094V8.77734H1.64062V20.1797H9.02344C9.47641 20.1797 9.84375 20.547 9.84375 21C9.84375 21.453 9.47641 21.8203 9.02344 21.8203H1.64062V26.6602H5.70117C6.15415 26.6602 6.52148 27.0275 6.52148 27.4805C6.52148 30.7598 9.18939 33.4277 12.4688 33.4277C12.9217 33.4277 13.2891 33.7951 13.2891 34.248V40.3594H17.3496C17.8016 40.3594 18.1699 40.7277 18.1699 41.1797C18.1699 41.6317 17.8016 42 17.3496 42H0.820312C0.604568 42 0.392929 41.9122 0.240433 41.7596C0.0877724 41.6071 0 41.3954 0 41.1797V0.820312C0 0.60457 0.0877724 0.39293 0.240433 0.240352ZM31.3359 29.1211C30.8836 29.1211 30.5156 29.4891 30.5156 29.9414C30.5156 30.3937 30.8836 30.7617 31.3359 30.7617C31.7883 30.7617 32.1562 30.3937 32.1562 29.9414C32.1562 29.4891 31.7883 29.1211 31.3359 29.1211ZM33.7148 9.67969C33.2625 9.67969 32.8945 10.0477 32.8945 10.5C32.8945 10.9523 33.2625 11.3203 33.7148 11.3203C34.1672 11.3203 34.5352 10.9523 34.5352 10.5C34.5352 10.0477 34.1672 9.67969 33.7148 9.67969ZM23.9531 25.5117H25.5938V21.8203H23.9531V25.5117ZM9.10547 12.7969C8.65315 12.7969 8.28516 13.1649 8.28516 13.6172C8.28516 14.0695 8.65315 14.4375 9.10547 14.4375C9.55779 14.4375 9.92578 14.0695 9.92578 13.6172C9.92578 13.1649 9.55779 12.7969 9.10547 12.7969ZM16.7344 7.13672V1.64062H1.64062V7.13672H16.7344ZM11.6484 35.0243C8.11822 34.6432 5.30603 31.831 4.92491 28.3008H1.64062V40.3594H11.6484V35.0243Z" fill="#3E3F41"/>
</svg>
