<svg width="40" height="40" viewBox="0 0 40 40" fill="none" xmlns="http://www.w3.org/2000/svg">
<path d="M40 0H0V40H40V0Z" fill="#031451"/>
<path d="M15.84 25V14.801H19.592C20.2967 14.801 20.8963 14.8663 21.391 14.997C21.8857 15.1277 22.2893 15.312 22.602 15.55C22.9147 15.788 23.141 16.0773 23.281 16.418C23.4257 16.7587 23.498 17.139 23.498 17.559C23.498 17.7877 23.4653 18.0093 23.4 18.224C23.3347 18.434 23.232 18.6323 23.092 18.819C22.952 19.0057 22.7723 19.176 22.553 19.33C22.3337 19.4793 22.07 19.61 21.762 19.722C22.434 19.8853 22.931 20.1513 23.253 20.52C23.575 20.884 23.736 21.353 23.736 21.927C23.736 22.361 23.652 22.7647 23.484 23.138C23.316 23.5113 23.0687 23.838 22.742 24.118C22.42 24.3933 22.021 24.6103 21.545 24.769C21.069 24.923 20.5253 25 19.914 25H15.84ZM18.206 20.674V23.215H19.872C20.1847 23.215 20.439 23.1753 20.635 23.096C20.8357 23.0167 20.992 22.914 21.104 22.788C21.216 22.662 21.293 22.5197 21.335 22.361C21.377 22.2023 21.398 22.0413 21.398 21.878C21.398 21.6913 21.3723 21.5233 21.321 21.374C21.2743 21.2247 21.1903 21.0987 21.069 20.996C20.9523 20.8933 20.796 20.814 20.6 20.758C20.404 20.702 20.1567 20.674 19.858 20.674H18.206ZM18.206 19.092H19.438C19.6993 19.092 19.935 19.0733 20.145 19.036C20.355 18.9987 20.5323 18.9333 20.677 18.84C20.8263 18.7467 20.9383 18.6183 21.013 18.455C21.0923 18.2917 21.132 18.0863 21.132 17.839C21.132 17.5963 21.1017 17.3957 21.041 17.237C20.9803 17.0737 20.887 16.943 20.761 16.845C20.635 16.747 20.474 16.677 20.278 16.635C20.0867 16.593 19.858 16.572 19.592 16.572H18.206V19.092Z" fill="white"/>
</svg>
