<svg width="24" height="24" viewBox="0 0 24 24" fill="none" xmlns="http://www.w3.org/2000/svg">
<path d="M11.5 7C12.163 7 12.7989 7.26339 13.2677 7.73223C13.7366 8.20107 14 8.83696 14 9.5C14 10.163 13.7366 10.7989 13.2677 11.2678C12.7989 11.7366 12.163 12 11.5 12C10.8369 12 10.2011 11.7366 9.73221 11.2678C9.26337 10.7989 8.99998 10.163 8.99998 9.5C8.99998 8.83696 9.26337 8.20107 9.73221 7.73223C10.2011 7.26339 10.8369 7 11.5 7V7ZM11.5 8C11.1022 8 10.7206 8.15804 10.4393 8.43934C10.158 8.72064 9.99998 9.10218 9.99998 9.5C9.99998 9.89783 10.158 10.2794 10.4393 10.5607C10.7206 10.842 11.1022 11 11.5 11C11.8978 11 12.2793 10.842 12.5606 10.5607C12.8419 10.2794 13 9.89783 13 9.5C13 9.10218 12.8419 8.72064 12.5606 8.43934C12.2793 8.15804 11.8978 8 11.5 8V8ZM6.79998 12.357L11.5 20.087L16.2 12.357C16.7069 11.523 16.9827 10.5691 16.9992 9.59333C17.0157 8.61751 16.7722 7.65488 16.2938 6.80424C15.8154 5.9536 15.1192 5.24558 14.2768 4.75285C13.4343 4.26012 12.4759 4.00043 11.5 4.00043C10.524 4.00043 9.56564 4.26012 8.7232 4.75285C7.88076 5.24558 7.1846 5.9536 6.70617 6.80424C6.22774 7.65488 5.98428 8.61751 6.00076 9.59333C6.01725 10.5691 6.29309 11.523 6.79998 12.357V12.357ZM17.054 12.877L11.5 22.012L5.94598 12.877C5.3471 11.8913 5.02126 10.7641 5.00189 9.61094C4.98253 8.45777 5.27034 7.32022 5.83578 6.31502C6.40123 5.30981 7.22395 4.47316 8.21952 3.89091C9.21509 3.30867 10.3476 3.0018 11.501 3.0018C12.6543 3.0018 13.7869 3.30867 14.7824 3.89091C15.778 4.47316 16.6007 5.30981 17.1662 6.31502C17.7316 7.32022 18.0194 8.45777 18.0001 9.61094C17.9807 10.7641 17.6549 11.8913 17.056 12.877H17.054V12.877Z" fill="#3E474F"/>
</svg>
