<svg width="52" height="52" viewBox="0 0 52 52" fill="none" xmlns="http://www.w3.org/2000/svg">
<path d="M13 10.8333H36.8333C38.5572 10.8333 40.2105 11.5182 41.4295 12.7371C42.6485 13.9561 43.3333 15.6094 43.3333 17.3333V36.8333C43.3333 38.5572 42.6485 40.2105 41.4295 41.4295C40.2105 42.6485 38.5572 43.3333 36.8333 43.3333H13C11.2761 43.3333 9.62279 42.6485 8.40381 41.4295C7.18482 40.2105 6.5 38.5572 6.5 36.8333V17.3333C6.5 15.6094 7.18482 13.9561 8.40381 12.7371C9.62279 11.5182 11.2761 10.8333 13 10.8333ZM8.66667 36.8333C8.66667 37.9826 9.12321 39.0848 9.93587 39.8975C10.7485 40.7101 11.8507 41.1667 13 41.1667H23.8333V34.6667H8.66667V36.8333ZM23.8333 26H8.66667V32.5H23.8333V26ZM36.8333 41.1667C37.9826 41.1667 39.0848 40.7101 39.8975 39.8975C40.7101 39.0848 41.1667 37.9826 41.1667 36.8333V34.6667H26V41.1667H36.8333ZM41.1667 26H26V32.5H41.1667V26ZM8.66667 23.8333H23.8333V17.3333H8.66667V23.8333ZM26 23.8333H41.1667V17.3333H26V23.8333Z" fill="#3E3F41"/>
</svg>
