<svg width="42" height="42" viewBox="0 0 42 42" fill="none" xmlns="http://www.w3.org/2000/svg">
<path d="M31.462 16.2012C32.7209 15.4855 33.7078 14.3735 34.2688 13.0385C34.8298 11.7035 34.9335 10.2204 34.5637 8.82026C34.1939 7.42016 33.3713 6.18169 32.2242 5.29782C31.0772 4.41394 29.6699 3.9343 28.2218 3.93362C26.7737 3.93295 25.366 4.41127 24.2181 5.29407C23.0702 6.17687 22.2465 7.41457 21.8754 8.81432C21.5043 10.2141 21.6066 11.6973 22.1664 13.0328C22.7261 14.3684 23.7119 15.4813 24.9701 16.1981C22.8307 16.8081 20.9096 18.0291 19.3632 19.7837C18.6212 19.3797 17.8369 19.0586 17.0245 18.8262C18.2837 18.1104 19.2706 16.9981 19.8316 15.6628C20.3925 14.3274 20.496 12.844 20.1258 11.4438C19.7556 10.0435 18.9325 8.80504 17.7849 7.92141C16.6373 7.03778 15.2296 6.55862 13.7812 6.55862C12.3329 6.55862 10.9252 7.03778 9.77758 7.92141C8.62997 8.80504 7.80693 10.0435 7.43673 11.4438C7.06653 12.844 7.16997 14.3274 7.73093 15.6628C8.29189 16.9981 9.27885 18.1104 10.538 18.8262C8.36779 19.4546 6.42378 20.6931 4.93721 22.3945C2.59973 25.0351 1.3125 28.7349 1.3125 32.8125C1.3125 32.9295 1.34381 33.0444 1.40316 33.1453C1.46251 33.2462 1.54775 33.3293 1.65006 33.3861C1.8973 33.5235 7.77402 36.75 13.7812 36.75C18.8803 36.75 23.2668 34.7884 25.0688 33.8531C26.1097 34.0285 27.1631 34.1195 28.2188 34.125C34.7712 34.125 40.1477 30.8854 40.3734 30.7474C40.4693 30.6888 40.5486 30.6066 40.6036 30.5085C40.6586 30.4105 40.6875 30.2999 40.6875 30.1875C40.6875 26.1099 39.4003 22.4101 37.0628 19.7695C35.5762 18.0681 33.6322 16.8296 31.462 16.2012ZM22.9688 10.5C22.9688 9.46165 23.2767 8.44662 23.8535 7.58326C24.4304 6.7199 25.2504 6.047 26.2097 5.64964C27.169 5.25228 28.2246 5.14831 29.243 5.35088C30.2614 5.55345 31.1968 6.05347 31.9311 6.78769C32.6653 7.52192 33.1653 8.45738 33.3679 9.47578C33.5704 10.4942 33.4665 11.5498 33.0691 12.5091C32.6718 13.4684 31.9989 14.2883 31.1355 14.8652C30.2721 15.4421 29.2571 15.75 28.2188 15.75C26.8268 15.7484 25.4924 15.1948 24.5082 14.2106C23.5239 13.2264 22.9703 11.8919 22.9688 10.5ZM8.53125 13.125C8.53125 12.0867 8.83916 11.0716 9.41603 10.2083C9.99291 9.3449 10.8128 8.672 11.7722 8.27464C12.7315 7.87728 13.7871 7.77331 14.8055 7.97588C15.8239 8.17845 16.7593 8.67847 17.4936 9.41269C18.2278 10.1469 18.7278 11.0824 18.9304 12.1008C19.1329 13.1192 19.029 14.1748 18.6316 15.1341C18.2343 16.0934 17.5614 16.9133 16.698 17.4902C15.8346 18.0671 14.8196 18.375 13.7812 18.375C12.3893 18.3734 11.0549 17.8198 10.0707 16.8356C9.08644 15.8514 8.53281 14.5169 8.53125 13.125ZM13.7812 35.4375C8.90999 35.4375 3.95391 33.0925 2.62935 32.4179C2.70843 28.8188 3.86982 25.5805 5.91995 23.2648C7.96212 20.9579 10.7543 19.6875 13.7812 19.6875C16.8082 19.6875 19.6004 20.9579 21.6426 23.2648C23.6956 25.5839 24.8574 28.8281 24.9335 32.4335C23.7058 33.1087 19.0857 35.4375 13.7812 35.4375ZM28.2188 32.8125C27.5604 32.8107 26.9027 32.7712 26.2489 32.6941C26.2242 28.6634 24.94 25.0095 22.6253 22.3949C21.9926 21.6779 21.2781 21.0374 20.4964 20.4867C22.5258 18.2732 25.241 17.0625 28.2188 17.0625C31.2457 17.0625 34.0379 18.3329 36.0801 20.6398C38.1332 22.9591 39.295 26.2033 39.3711 29.809C38.1454 30.4845 33.535 32.8125 28.2188 32.8125Z" fill="#3E3F41"/>
</svg>
