<svg width="20" height="20" viewBox="0 0 20 20" fill="none" xmlns="http://www.w3.org/2000/svg">
<path d="M10.0195 20C9.8038 20 9.62891 19.8251 9.62891 19.6094C9.62891 19.3936 9.8038 19.2188 10.0195 19.2188C10.2353 19.2188 10.4102 19.3936 10.4102 19.6094C10.4102 19.8251 10.2353 20 10.0195 20Z" fill="white"/>
<path d="M0.114492 0.114453C0.187109 0.0417578 0.287891 0 0.390625 0H19.6094C19.7121 0 19.8129 0.0417578 19.8855 0.114453C19.9582 0.187148 20 0.287891 20 0.390625V19.6094C20 19.7121 19.9582 19.8129 19.8855 19.8855C19.8129 19.9582 19.7121 20 19.6094 20H11.7773C11.5621 20 11.3867 19.8246 11.3867 19.6094C11.3867 19.3941 11.5621 19.2188 11.7773 19.2188H14.1557L12.8479 17.417C12.7212 17.2423 12.76 16.9981 12.9346 16.8714C13.1092 16.7446 13.3535 16.7834 13.4802 16.958L15.121 19.2188H19.2188V14.6484H16.0266C15.8653 15.1031 15.4311 15.4297 14.9219 15.4297C14.2757 15.4297 13.75 14.904 13.75 14.2578C13.75 13.6116 14.2757 13.0859 14.9219 13.0859C15.4311 13.0859 15.8653 13.4125 16.0266 13.8672H19.2188V10.3906H12.9688V12.5391C12.9688 12.7548 12.7938 12.9297 12.5781 12.9297H11.0156C10.7999 12.9297 10.625 12.7548 10.625 12.5391V10.3906H8.33738L5.78703 12.3784C5.7157 12.434 5.63113 12.461 5.54715 12.4609C5.43086 12.4609 5.31578 12.4093 5.23875 12.3104C5.10613 12.1403 5.13656 11.8948 5.30672 11.7622L7.96297 9.69188C8.0316 9.6384 8.11609 9.60938 8.20309 9.60938H12.1875V6.99219C12.1875 6.77648 12.3624 6.60156 12.5781 6.60156C12.7938 6.60156 12.9688 6.77648 12.9688 6.99219V7.38281H15.6641V6.10469C15.2094 5.94344 14.8828 5.50926 14.8828 5C14.8828 4.35383 15.4085 3.82812 16.0547 3.82812C16.7009 3.82812 17.2266 4.35383 17.2266 5C17.2266 5.50922 16.9 5.94344 16.4453 6.10469V7.77344C16.4453 7.98914 16.2704 8.16406 16.0547 8.16406H12.9688V9.60938H19.2188V0.78125H12.9688V3.08594C12.9688 3.17297 12.9397 3.25746 12.8863 3.32605L10.8159 5.9823C10.7389 6.08109 10.6238 6.13285 10.5075 6.13281C10.4236 6.13281 10.339 6.1059 10.2677 6.05031C10.0975 5.91766 10.0671 5.67223 10.1997 5.50207L12.1875 2.95168V0.78125H8.75V3.78906C8.75 4.00477 8.57508 4.17969 8.35938 4.17969H7.5V6.48438C7.5 6.70008 7.32508 6.875 7.10938 6.875H5.44063C5.27938 7.32965 4.8452 7.65625 4.33594 7.65625C3.68977 7.65625 3.16406 7.13055 3.16406 6.48438C3.16406 5.8382 3.68977 5.3125 4.33594 5.3125C4.84516 5.3125 5.27938 5.6391 5.44063 6.09375H6.71875V4.17969H0.78125V9.60938H4.29688C4.51258 9.60938 4.6875 9.7843 4.6875 10C4.6875 10.2157 4.51258 10.3906 4.29688 10.3906H0.78125V12.6953H2.71484C2.93055 12.6953 3.10547 12.8702 3.10547 13.0859C3.10547 14.6475 4.3759 15.918 5.9375 15.918C6.1532 15.918 6.32812 16.0929 6.32812 16.3086V19.2188H8.26172C8.47695 19.2188 8.65234 19.3941 8.65234 19.6094C8.65234 19.8246 8.47695 20 8.26172 20H0.390625C0.287891 20 0.187109 19.9582 0.114492 19.8855C0.0417976 19.8129 0 19.7121 0 19.6094V0.390625C0 0.287891 0.0417976 0.187109 0.114492 0.114453ZM14.9219 13.8672C14.7065 13.8672 14.5312 14.0424 14.5312 14.2578C14.5312 14.4732 14.7065 14.6484 14.9219 14.6484C15.1373 14.6484 15.3125 14.4732 15.3125 14.2578C15.3125 14.0424 15.1373 13.8672 14.9219 13.8672ZM16.0547 4.60938C15.8393 4.60938 15.6641 4.78461 15.6641 5C15.6641 5.21539 15.8393 5.39062 16.0547 5.39062C16.2701 5.39062 16.4453 5.21539 16.4453 5C16.4453 4.78461 16.2701 4.60938 16.0547 4.60938ZM11.4062 12.1484H12.1875V10.3906H11.4062V12.1484ZM4.33594 6.09375C4.12055 6.09375 3.94531 6.26898 3.94531 6.48438C3.94531 6.69977 4.12055 6.875 4.33594 6.875C4.55133 6.875 4.72656 6.69977 4.72656 6.48438C4.72656 6.26898 4.55133 6.09375 4.33594 6.09375ZM7.96875 3.39844V0.78125H0.78125V3.39844H7.96875ZM5.54688 16.6782C3.86582 16.4968 2.52668 15.1576 2.3452 13.4766H0.78125V19.2188H5.54688V16.6782Z" fill="white"/>
</svg>
