<svg width="16" height="16" viewBox="0 0 16 16" fill="none" xmlns="http://www.w3.org/2000/svg">
<path d="M13.156 9.21079C12.943 9.00079 12.47 8.88979 11.75 8.87979C11.1844 8.8804 10.6196 8.92185 10.06 9.00379C9.78401 8.84479 9.49901 8.67079 9.27601 8.46179C8.67501 7.90079 8.17301 7.12179 7.86101 6.26479C7.88101 6.18479 7.89901 6.11479 7.91501 6.04279C7.91501 6.04279 8.25401 4.11979 8.16401 3.46979C8.15738 3.4068 8.14259 3.34495 8.12001 3.28579L8.09101 3.20979C7.99901 2.99779 7.81801 2.77279 7.53501 2.78479L7.36401 2.77979C7.04801 2.77979 6.79101 2.94079 6.72401 3.18279C6.51901 3.93979 6.73101 5.07179 7.11401 6.53779L7.01601 6.77679C6.74101 7.44678 6.39701 8.12179 6.09301 8.71679L6.05301 8.79379C5.73301 9.41979 5.44301 9.95079 5.18001 10.4008L4.90901 10.5448C4.88901 10.5548 4.42401 10.8018 4.31501 10.8678C3.38901 11.4208 2.77601 12.0478 2.67401 12.5458C2.64201 12.7048 2.66601 12.9078 2.83001 13.0018L3.09301 13.1338C3.20363 13.19 3.32591 13.2195 3.45001 13.2198C4.10901 13.2198 4.87501 12.3988 5.93001 10.5578C7.177 10.1546 8.45401 9.85103 9.74901 9.64979C10.675 10.1708 11.814 10.5328 12.532 10.5328C12.66 10.5328 12.77 10.5208 12.859 10.4968C12.9907 10.4647 13.1062 10.3858 13.184 10.2748C13.323 10.0648 13.352 9.77578 13.314 9.47978C13.2901 9.37572 13.2354 9.28128 13.157 9.20879L13.156 9.21079ZM3.30701 12.7198C3.42701 12.3908 3.90301 11.7408 4.60701 11.1638C4.65101 11.1278 4.76001 11.0258 4.86001 10.9308C4.12401 12.1048 3.63101 12.5728 3.30701 12.7188V12.7198ZM7.47601 3.11979C7.68801 3.11979 7.80901 3.65379 7.81901 4.15479C7.82901 4.65579 7.71201 5.00779 7.56701 5.26779C7.44701 4.88279 7.38801 4.27579 7.38801 3.87879C7.38801 3.87879 7.37901 3.11979 7.47601 3.11979ZM6.23201 9.96079C6.38001 9.69679 6.53301 9.41779 6.69001 9.12179C7.07301 8.39779 7.31401 7.83179 7.49401 7.36679C7.832 7.99311 8.28213 8.55205 8.82201 9.01579C8.88701 9.07079 8.95701 9.12679 9.02901 9.18179C7.96301 9.39279 7.04201 9.64879 6.23101 9.96079H6.23201ZM12.952 9.90079C12.887 9.94179 12.701 9.96479 12.582 9.96479C12.196 9.96479 11.718 9.78879 11.049 9.50079C11.306 9.48179 11.542 9.47179 11.754 9.47179C12.141 9.47179 12.256 9.46979 12.634 9.56679C13.012 9.66379 13.017 9.85979 12.952 9.89979V9.90079Z" fill="white"/>
<path d="M14.341 3.579C13.994 3.106 13.51 2.552 12.979 2.021C12.448 1.49 11.894 1.006 11.421 0.659C10.615 0.068 10.224 0 10 0H2.25C1.561 0 1 0.561 1 1.25V14.75C1 15.439 1.561 16 2.25 16H13.75C14.439 16 15 15.439 15 14.75V5C15 4.776 14.932 4.385 14.341 3.579ZM12.271 2.729C12.751 3.209 13.127 3.641 13.405 4H10.999V1.595C11.358 1.873 11.791 2.249 12.27 2.729H12.271ZM14 14.75C14 14.886 13.886 15 13.75 15H2.25C2.18394 14.9992 2.1208 14.9726 2.07408 14.9259C2.02737 14.8792 2.00078 14.8161 2 14.75V1.25C2 1.115 2.115 1 2.25 1H10V4.5C10 4.63261 10.0527 4.75979 10.1464 4.85355C10.2402 4.94732 10.3674 5 10.5 5H14V14.75Z" fill="white"/>
</svg>
