<svg width="42" height="42" viewBox="0 0 42 42" fill="none" xmlns="http://www.w3.org/2000/svg">
<path d="M10.5 8.75H29.75C31.1424 8.75 32.4777 9.30312 33.4623 10.2877C34.4469 11.2723 35 12.6076 35 14V29.75C35 31.1424 34.4469 32.4777 33.4623 33.4623C32.4777 34.4469 31.1424 35 29.75 35H10.5C9.10761 35 7.77226 34.4469 6.78769 33.4623C5.80312 32.4777 5.25 31.1424 5.25 29.75V14C5.25 12.6076 5.80312 11.2723 6.78769 10.2877C7.77226 9.30312 9.10761 8.75 10.5 8.75V8.75ZM7 29.75C7 30.6783 7.36875 31.5685 8.02513 32.2249C8.6815 32.8813 9.57174 33.25 10.5 33.25H19.25V28H7V29.75ZM19.25 21H7V26.25H19.25V21ZM29.75 33.25C30.6783 33.25 31.5685 32.8813 32.2249 32.2249C32.8813 31.5685 33.25 30.6783 33.25 29.75V28H21V33.25H29.75ZM33.25 21H21V26.25H33.25V21ZM7 19.25H19.25V14H7V19.25ZM21 19.25H33.25V14H21V19.25Z" fill="white"/>
</svg>
