<svg width="20" height="20" viewBox="0 0 20 20" fill="none" xmlns="http://www.w3.org/2000/svg">
<path fill-rule="evenodd" clip-rule="evenodd" d="M11.5777 11.7124C11.6136 11.4264 11.592 11.1361 11.5141 10.8586L11.3443 10.2563C11.6197 10.0446 11.9178 9.86433 12.2332 9.71882L12.5976 10.1059C12.7997 10.3204 13.0435 10.4913 13.3141 10.6081C13.5846 10.7249 13.8761 10.7853 14.1708 10.7854C14.4655 10.7855 14.757 10.7253 15.0277 10.6087C15.2983 10.492 15.5422 10.3213 15.7444 10.107L16.0959 9.73504C16.4172 9.88713 16.7202 10.0754 16.9988 10.2963L16.8626 10.7515C16.778 11.0339 16.7521 11.3305 16.7864 11.6232C16.8206 11.916 16.9143 12.1986 17.0618 12.4538C17.2092 12.709 17.4073 12.9313 17.6438 13.1072C17.8803 13.2831 18.1502 13.4088 18.437 13.4766L18.8133 13.5652C18.8565 13.9304 18.8601 14.2991 18.8242 14.665L18.3267 14.7915C18.0474 14.8629 17.7851 14.9895 17.5554 15.1638C17.3256 15.338 17.1331 15.5564 16.989 15.8062C16.8449 16.056 16.7522 16.332 16.7164 16.6182C16.6806 16.9043 16.7023 17.1947 16.7804 17.4722L16.9491 18.0735C16.6744 18.2854 16.3759 18.466 16.0602 18.612L15.6958 18.2249C15.4937 18.0104 15.25 17.8394 14.9795 17.7225C14.709 17.6055 14.4175 17.5451 14.1228 17.5449C13.8282 17.5447 13.5365 17.6047 13.2659 17.7213C12.9953 17.8378 12.7513 18.0085 12.549 18.2227L12.1975 18.5947C11.8753 18.4433 11.5736 18.2551 11.2946 18.0345L11.4319 17.5782C11.5163 17.2959 11.5421 16.9994 11.5077 16.7068C11.4734 16.4142 11.3796 16.1317 11.2322 15.8766C11.0848 15.6216 10.8868 15.3993 10.6504 15.2235C10.414 15.0477 10.1441 14.922 9.85744 14.8542L9.47896 14.7645C9.43569 14.3997 9.43207 14.0314 9.46815 13.6658L9.96774 13.5382C10.247 13.4668 10.5091 13.3403 10.7388 13.1661C10.9684 12.9919 11.1609 12.7736 11.305 12.5239C11.4491 12.2743 11.5418 11.9983 11.5777 11.7124ZM13.3815 14.9301C13.5843 15.1328 13.8594 15.2468 14.1462 15.2468C14.4329 15.2468 14.708 15.1328 14.9108 14.9301C15.1136 14.7273 15.2275 14.4522 15.2275 14.1654C15.2275 13.8786 15.1136 13.6036 14.9108 13.4008C14.708 13.198 14.4329 13.084 14.1462 13.084C13.8594 13.084 13.5843 13.198 13.3815 13.4008C13.1787 13.6036 13.0648 13.8786 13.0648 14.1654C13.0648 14.4522 13.1787 14.7273 13.3815 14.9301Z" fill="#3E474F"/>
<path fill-rule="evenodd" clip-rule="evenodd" d="M16.0386 5.78479H2.52143V14.1654C2.52143 14.6673 2.72081 15.1486 3.0757 15.5035C3.43059 15.8584 3.91193 16.0578 4.41383 16.0578H8.2216C8.28016 16.2411 8.34724 16.4215 8.4226 16.5985H4.41383C3.76853 16.5985 3.14967 16.3421 2.69338 15.8859C2.23709 15.4296 1.98074 14.8107 1.98074 14.1654V4.43308C1.98074 3.78779 2.23709 3.16892 2.69338 2.71263C3.14967 2.25634 3.76853 2 4.41383 2H14.1462C14.7914 2 15.4103 2.25634 15.8666 2.71263C16.3229 3.16892 16.5792 3.78779 16.5792 4.43308V8.44148C16.4029 8.36643 16.2226 8.29956 16.0386 8.24084V5.78479ZM2.52143 5.24411H16.0386V4.43308C16.0386 3.93119 15.8392 3.44985 15.4843 3.09495C15.1294 2.74006 14.648 2.54068 14.1462 2.54068H4.41383C3.91193 2.54068 3.43059 2.74006 3.0757 3.09495C2.72081 3.44985 2.52143 3.93119 2.52143 4.43308V5.24411Z" fill="#3E474F"/>
<path fill-rule="evenodd" clip-rule="evenodd" d="M7.92828 7.67719V14.1654C7.92828 14.2371 7.8998 14.3059 7.8491 14.3566C7.7984 14.4073 7.72964 14.4358 7.65794 14.4358H4.41383C4.34213 14.4358 4.27336 14.4073 4.22267 14.3566C4.17197 14.3059 4.14348 14.2371 4.14348 14.1654V7.67719C4.14348 7.60549 4.17197 7.53673 4.22267 7.48603C4.27336 7.43533 4.34213 7.40685 4.41383 7.40685H7.65794C7.72964 7.40685 7.7984 7.43533 7.8491 7.48603C7.8998 7.53673 7.92828 7.60549 7.92828 7.67719ZM7.38759 7.94753H4.68417V13.8951H7.38759V7.94753Z" fill="#3E474F"/>
<path d="M9.54817 7.67719C9.54817 7.60549 9.57665 7.53673 9.62735 7.48603C9.67805 7.43533 9.74681 7.40685 9.81851 7.40685H14.1462C14.2179 7.40685 14.2866 7.43533 14.3373 7.48603C14.388 7.53673 14.4165 7.60549 14.4165 7.67719C14.4165 7.74889 14.388 7.81765 14.3373 7.86835C14.2866 7.91905 14.2179 7.94753 14.1462 7.94753H9.81851C9.74681 7.94753 9.67805 7.91905 9.62735 7.86835C9.57665 7.81765 9.54817 7.74889 9.54817 7.67719Z" fill="#3E474F"/>
</svg>
